<?xml version="1.0" encoding="UTF-8" standalone="no"?>
<!DOCTYPE svg PUBLIC "-//W3C//DTD SVG 1.1//EN"
 "http://www.w3.org/Graphics/SVG/1.1/DTD/svg11.dtd">
<!-- Generated by graphviz version 2.42.3 (20191010.1750)
 -->
<!-- Title: out Pages: 1 -->
<svg width="576pt" height="233pt"
 viewBox="0.00 0.00 576.00 232.64" xmlns="http://www.w3.org/2000/svg" xmlns:xlink="http://www.w3.org/1999/xlink">
<g id="graph0" class="graph" transform="scale(1.16 1.16) rotate(0) translate(4 266)">
<title>out</title>
<polygon fill="white" stroke="transparent" points="-4,4 -4,-266 664.49,-266 664.49,4 -4,4"/>
<!-- 0 -->
<g id="node1" class="node">
<title>0</title>
<ellipse fill="none" stroke="black" cx="18" cy="-143" rx="18" ry="18"/>
<text text-anchor="middle" x="18" y="-139.3" font-family="Times,serif" font-size="14.00">0</text>
</g>
<!-- 3 -->
<g id="node2" class="node">
<title>3</title>
<ellipse fill="none" stroke="black" cx="113" cy="-72" rx="18" ry="18"/>
<text text-anchor="middle" x="113" y="-68.3" font-family="Times,serif" font-size="14.00">3</text>
</g>
<!-- 0&#45;&gt;3 -->
<g id="edge1" class="edge">
<title>0&#45;&gt;3</title>
<path fill="none" stroke="black" d="M32.13,-131.78C38.63,-126.31 46.64,-119.7 54,-114 65.36,-105.19 78.29,-95.77 89.06,-88.09"/>
<polygon fill="black" stroke="black" points="91.37,-90.74 97.51,-82.1 87.33,-85.03 91.37,-90.74"/>
<text text-anchor="middle" x="65.5" y="-117.8" font-family="Times,serif" font-size="14.00">2/2</text>
</g>
<!-- 2 -->
<g id="node3" class="node">
<title>2</title>
<ellipse fill="none" stroke="black" cx="167" cy="-204" rx="18" ry="18"/>
<text text-anchor="middle" x="167" y="-200.3" font-family="Times,serif" font-size="14.00">2</text>
</g>
<!-- 0&#45;&gt;2 -->
<g id="edge2" class="edge">
<title>0&#45;&gt;2</title>
<path fill="none" stroke="black" d="M35.01,-149.64C60.42,-160.19 110.18,-180.84 140.53,-193.43"/>
<polygon fill="black" stroke="black" points="139.43,-196.76 150.01,-197.36 142.11,-190.3 139.43,-196.76"/>
<text text-anchor="middle" x="65.5" y="-170.8" font-family="Times,serif" font-size="14.00">0/2</text>
</g>
<!-- 1 -->
<g id="node4" class="node">
<title>1</title>
<ellipse fill="none" stroke="black" cx="221" cy="-143" rx="18" ry="18"/>
<text text-anchor="middle" x="221" y="-139.3" font-family="Times,serif" font-size="14.00">1</text>
</g>
<!-- 0&#45;&gt;1 -->
<g id="edge3" class="edge">
<title>0&#45;&gt;1</title>
<path fill="none" stroke="black" d="M36.14,-143C71.07,-143 150.76,-143 192.83,-143"/>
<polygon fill="black" stroke="black" points="192.91,-146.5 202.91,-143 192.91,-139.5 192.91,-146.5"/>
<text text-anchor="middle" x="113" y="-146.8" font-family="Times,serif" font-size="14.00">0/4</text>
</g>
<!-- 6 -->
<g id="node6" class="node">
<title>6</title>
<ellipse fill="none" stroke="black" cx="320.75" cy="-87" rx="18" ry="18"/>
<text text-anchor="middle" x="320.75" y="-83.3" font-family="Times,serif" font-size="14.00">6</text>
</g>
<!-- 3&#45;&gt;6 -->
<g id="edge10" class="edge">
<title>3&#45;&gt;6</title>
<path fill="none" stroke="black" d="M131.19,-73.25C166.98,-75.86 249.75,-81.9 292.73,-85.03"/>
<polygon fill="black" stroke="black" points="292.53,-88.52 302.75,-85.76 293.03,-81.54 292.53,-88.52"/>
<text text-anchor="middle" x="221" y="-83.8" font-family="Times,serif" font-size="14.00">2/2</text>
</g>
<!-- 8 -->
<g id="node10" class="node">
<title>8</title>
<ellipse fill="none" stroke="black" cx="221" cy="-18" rx="18" ry="18"/>
<text text-anchor="middle" x="221" y="-14.3" font-family="Times,serif" font-size="14.00">8</text>
</g>
<!-- 3&#45;&gt;8 -->
<g id="edge11" class="edge">
<title>3&#45;&gt;8</title>
<path fill="none" stroke="black" d="M126.48,-59.8C132.83,-54.11 140.9,-47.59 149,-43 162.86,-35.15 179.63,-29.11 193.38,-24.93"/>
<polygon fill="black" stroke="black" points="194.57,-28.23 203.22,-22.1 192.64,-21.5 194.57,-28.23"/>
<text text-anchor="middle" x="167" y="-46.8" font-family="Times,serif" font-size="14.00">0/2</text>
</g>
<!-- 5 -->
<g id="node7" class="node">
<title>5</title>
<ellipse fill="none" stroke="black" cx="320.75" cy="-202" rx="18" ry="18"/>
<text text-anchor="middle" x="320.75" y="-198.3" font-family="Times,serif" font-size="14.00">5</text>
</g>
<!-- 2&#45;&gt;5 -->
<g id="edge8" class="edge">
<title>2&#45;&gt;5</title>
<path fill="none" stroke="black" d="M185.11,-203.77C211.18,-203.43 261.1,-202.77 292.29,-202.36"/>
<polygon fill="black" stroke="black" points="292.51,-205.86 302.47,-202.23 292.42,-198.86 292.51,-205.86"/>
<text text-anchor="middle" x="221" y="-206.8" font-family="Times,serif" font-size="14.00">0/2</text>
</g>
<!-- 4 -->
<g id="node5" class="node">
<title>4</title>
<ellipse fill="none" stroke="black" cx="379.5" cy="-143" rx="18" ry="18"/>
<text text-anchor="middle" x="379.5" y="-139.3" font-family="Times,serif" font-size="14.00">4</text>
</g>
<!-- 1&#45;&gt;4 -->
<g id="edge4" class="edge">
<title>1&#45;&gt;4</title>
<path fill="none" stroke="black" d="M239.05,-143C266.09,-143 319.07,-143 351.38,-143"/>
<polygon fill="black" stroke="black" points="351.47,-146.5 361.47,-143 351.47,-139.5 351.47,-146.5"/>
<text text-anchor="middle" x="268.5" y="-146.8" font-family="Times,serif" font-size="14.00">0/2</text>
</g>
<!-- 1&#45;&gt;6 -->
<g id="edge5" class="edge">
<title>1&#45;&gt;6</title>
<path fill="none" stroke="black" d="M232.28,-128.96C238.62,-121.2 247.37,-111.95 257,-106 267.82,-99.31 281.16,-94.84 292.75,-91.93"/>
<polygon fill="black" stroke="black" points="293.79,-95.28 302.78,-89.67 292.25,-88.45 293.79,-95.28"/>
<text text-anchor="middle" x="268.5" y="-109.8" font-family="Times,serif" font-size="14.00">0/2</text>
</g>
<!-- 1&#45;&gt;5 -->
<g id="edge6" class="edge">
<title>1&#45;&gt;5</title>
<path fill="none" stroke="black" d="M236.85,-151.96C252.56,-161.45 277.6,-176.56 296.05,-187.7"/>
<polygon fill="black" stroke="black" points="294.39,-190.78 304.76,-192.95 298.01,-184.79 294.39,-190.78"/>
<text text-anchor="middle" x="268.5" y="-180.8" font-family="Times,serif" font-size="14.00">0/2</text>
</g>
<!-- 10 -->
<g id="node8" class="node">
<title>10</title>
<ellipse fill="none" stroke="black" cx="533.24" cy="-193" rx="23" ry="23"/>
<text text-anchor="middle" x="533.24" y="-189.3" font-family="Times,serif" font-size="14.00">10</text>
</g>
<!-- 4&#45;&gt;10 -->
<g id="edge7" class="edge">
<title>4&#45;&gt;10</title>
<path fill="none" stroke="black" d="M397.42,-144.9C411.99,-146.81 433.45,-150.31 451.5,-156 469.35,-161.63 488.43,-170.24 503.56,-177.74"/>
<polygon fill="black" stroke="black" points="502.38,-181.06 512.88,-182.46 505.54,-174.82 502.38,-181.06"/>
<text text-anchor="middle" x="433.5" y="-159.8" font-family="Times,serif" font-size="14.00">0/2</text>
</g>
<!-- 9 -->
<g id="node11" class="node">
<title>9</title>
<ellipse fill="none" stroke="black" cx="433.5" cy="-87" rx="18" ry="18"/>
<text text-anchor="middle" x="433.5" y="-83.3" font-family="Times,serif" font-size="14.00">9</text>
</g>
<!-- 6&#45;&gt;9 -->
<g id="edge12" class="edge">
<title>6&#45;&gt;9</title>
<path fill="none" stroke="black" d="M339.05,-87C356.77,-87 384.57,-87 405.24,-87"/>
<polygon fill="black" stroke="black" points="405.31,-90.5 415.31,-87 405.31,-83.5 405.31,-90.5"/>
<text text-anchor="middle" x="379.5" y="-90.8" font-family="Times,serif" font-size="14.00">2/2</text>
</g>
<!-- 5&#45;&gt;10 -->
<g id="edge16" class="edge">
<title>5&#45;&gt;10</title>
<path fill="none" stroke="black" d="M338.97,-201.26C374.24,-199.76 455.15,-196.3 500.3,-194.37"/>
<polygon fill="black" stroke="black" points="500.59,-197.86 510.43,-193.93 500.29,-190.86 500.59,-197.86"/>
<text text-anchor="middle" x="433.5" y="-200.8" font-family="Times,serif" font-size="14.00">0/1</text>
</g>
<!-- 7 -->
<g id="node13" class="node">
<title>7</title>
<ellipse fill="none" stroke="black" cx="433.5" cy="-244" rx="18" ry="18"/>
<text text-anchor="middle" x="433.5" y="-240.3" font-family="Times,serif" font-size="14.00">7</text>
</g>
<!-- 5&#45;&gt;7 -->
<g id="edge17" class="edge">
<title>5&#45;&gt;7</title>
<path fill="none" stroke="black" d="M338.09,-208.2C356.27,-215.09 385.87,-226.32 407.08,-234.36"/>
<polygon fill="black" stroke="black" points="405.86,-237.64 416.45,-237.91 408.34,-231.1 405.86,-237.64"/>
<text text-anchor="middle" x="379.5" y="-233.8" font-family="Times,serif" font-size="14.00">0/1</text>
</g>
<!-- 12 -->
<g id="node9" class="node">
<title>12</title>
<ellipse fill="none" stroke="black" cx="637.74" cy="-225" rx="23" ry="23"/>
<text text-anchor="middle" x="637.74" y="-221.3" font-family="Times,serif" font-size="14.00">12</text>
</g>
<!-- 10&#45;&gt;12 -->
<g id="edge9" class="edge">
<title>10&#45;&gt;12</title>
<path fill="none" stroke="black" d="M555.48,-199.63C570.15,-204.21 589.87,-210.37 606.22,-215.47"/>
<polygon fill="black" stroke="black" points="605.29,-218.85 615.88,-218.49 607.38,-212.17 605.29,-218.85"/>
<text text-anchor="middle" x="585.49" y="-214.8" font-family="Times,serif" font-size="14.00">0/6</text>
</g>
<!-- 11 -->
<g id="node12" class="node">
<title>11</title>
<ellipse fill="none" stroke="black" cx="320.75" cy="-27" rx="23" ry="23"/>
<text text-anchor="middle" x="320.75" y="-23.3" font-family="Times,serif" font-size="14.00">11</text>
</g>
<!-- 8&#45;&gt;11 -->
<g id="edge13" class="edge">
<title>8&#45;&gt;11</title>
<path fill="none" stroke="black" d="M239.03,-19.57C252.4,-20.8 271.4,-22.55 287.61,-24.04"/>
<polygon fill="black" stroke="black" points="287.49,-27.55 297.77,-24.98 288.14,-20.57 287.49,-27.55"/>
<text text-anchor="middle" x="268.5" y="-27.8" font-family="Times,serif" font-size="14.00">0/2</text>
</g>
<!-- 9&#45;&gt;10 -->
<g id="edge15" class="edge">
<title>9&#45;&gt;10</title>
<path fill="none" stroke="black" d="M451.25,-91.17C463.88,-95.04 480.96,-101.91 492.5,-113 506.29,-126.26 516.02,-145.32 522.4,-161.51"/>
<polygon fill="black" stroke="black" points="519.21,-162.97 525.95,-171.15 525.78,-160.55 519.21,-162.97"/>
<text text-anchor="middle" x="481" y="-116.8" font-family="Times,serif" font-size="14.00">2/4</text>
</g>
<!-- 11&#45;&gt;9 -->
<g id="edge14" class="edge">
<title>11&#45;&gt;9</title>
<path fill="none" stroke="black" d="M341.05,-37.44C356.36,-45.72 378.3,-57.6 397.5,-68 400.92,-69.86 404.53,-71.81 408.08,-73.74"/>
<polygon fill="black" stroke="black" points="406.71,-76.98 417.16,-78.67 410.05,-70.83 406.71,-76.98"/>
<text text-anchor="middle" x="379.5" y="-71.8" font-family="Times,serif" font-size="14.00">0/2</text>
</g>
<!-- 7&#45;&gt;10 -->
<g id="edge19" class="edge">
<title>7&#45;&gt;10</title>
<path fill="none" stroke="black" d="M449.77,-236.03C464.09,-228.56 485.86,-217.2 503.44,-208.03"/>
<polygon fill="black" stroke="black" points="505.45,-210.93 512.7,-203.2 502.21,-204.72 505.45,-210.93"/>
<text text-anchor="middle" x="481" y="-227.8" font-family="Times,serif" font-size="14.00">0/1</text>
</g>
<!-- 7&#45;&gt;12 -->
<g id="edge18" class="edge">
<title>7&#45;&gt;12</title>
<path fill="none" stroke="black" d="M451.52,-243.77C463.09,-243.53 478.73,-243.03 492.5,-242 539.11,-238.53 550.58,-235.58 596.99,-230 599.53,-229.69 602.16,-229.37 604.8,-229.05"/>
<polygon fill="black" stroke="black" points="605.39,-232.5 614.88,-227.79 604.52,-225.56 605.39,-232.5"/>
<text text-anchor="middle" x="533.24" y="-243.8" font-family="Times,serif" font-size="14.00">0/2</text>
</g>
</g>
</svg>
