<?xml version="1.0" encoding="UTF-8" standalone="no"?>
<!DOCTYPE svg PUBLIC "-//W3C//DTD SVG 1.1//EN"
 "http://www.w3.org/Graphics/SVG/1.1/DTD/svg11.dtd">
<!-- Generated by graphviz version 2.42.3 (20191010.1750)
 -->
<!-- Title: out Pages: 1 -->
<svg width="966pt" height="173pt"
 viewBox="0.00 0.00 966.00 173.47" xmlns="http://www.w3.org/2000/svg" xmlns:xlink="http://www.w3.org/1999/xlink">
<g id="graph0" class="graph" transform="scale(1 1) rotate(0) translate(4 169.47)">
<title>out</title>
<polygon fill="white" stroke="transparent" points="-4,4 -4,-169.47 962,-169.47 962,4 -4,4"/>
<!-- 0 -->
<g id="node1" class="node">
<title>0</title>
<ellipse fill="none" stroke="black" cx="18" cy="-129.47" rx="18" ry="18"/>
<text text-anchor="middle" x="18" y="-125.77" font-family="Times,serif" font-size="14.00">0</text>
</g>
<!-- 3 -->
<g id="node2" class="node">
<title>3</title>
<ellipse fill="none" stroke="black" cx="133.5" cy="-95.47" rx="18" ry="18"/>
<text text-anchor="middle" x="133.5" y="-91.77" font-family="Times,serif" font-size="14.00">3</text>
</g>
<!-- 0&#45;&gt;3 -->
<g id="edge1" class="edge">
<title>0&#45;&gt;3</title>
<path fill="none" stroke="black" d="M35.75,-124.45C54.38,-118.87 84.72,-109.78 106.45,-103.27"/>
<polygon fill="black" stroke="black" points="107.48,-106.62 116.05,-100.4 105.47,-99.91 107.48,-106.62"/>
<text text-anchor="middle" x="74.5" y="-122.27" font-family="Times,serif" font-size="14.00">10/10</text>
</g>
<!-- 2 -->
<g id="node3" class="node">
<title>2</title>
<ellipse fill="none" stroke="black" cx="481.5" cy="-133.47" rx="18" ry="18"/>
<text text-anchor="middle" x="481.5" y="-129.77" font-family="Times,serif" font-size="14.00">2</text>
</g>
<!-- 0&#45;&gt;2 -->
<g id="edge2" class="edge">
<title>0&#45;&gt;2</title>
<path fill="none" stroke="black" d="M35.65,-133.72C41.43,-135.07 47.97,-136.48 54,-137.47 193.12,-160.35 230.38,-159.69 371,-149.47 399.32,-147.41 431.44,-142.39 453.54,-138.52"/>
<polygon fill="black" stroke="black" points="454.29,-141.94 463.51,-136.73 453.05,-135.05 454.29,-141.94"/>
<text text-anchor="middle" x="133.5" y="-154.27" font-family="Times,serif" font-size="14.00">10/10</text>
</g>
<!-- 3&#45;&gt;2 -->
<g id="edge6" class="edge">
<title>3&#45;&gt;2</title>
<path fill="none" stroke="black" d="M151.58,-93.68C190.72,-89.99 289.79,-82.94 371,-96.47 400.73,-101.42 433.27,-113.3 455.09,-122.27"/>
<polygon fill="black" stroke="black" points="454.02,-125.62 464.59,-126.28 456.74,-119.17 454.02,-125.62"/>
<text text-anchor="middle" x="271.5" y="-100.27" font-family="Times,serif" font-size="14.00">10/4611686018427387903</text>
</g>
<!-- 1 -->
<g id="node4" class="node">
<title>1</title>
<ellipse fill="none" stroke="black" cx="827" cy="-78.47" rx="18" ry="18"/>
<text text-anchor="middle" x="827" y="-74.77" font-family="Times,serif" font-size="14.00">1</text>
</g>
<!-- 3&#45;&gt;1 -->
<g id="edge7" class="edge">
<title>3&#45;&gt;1</title>
<path fill="none" stroke="black" d="M150.71,-89.69C157.24,-87.63 164.89,-85.56 172,-84.47 356.54,-56.16 405.31,-78.25 592,-76.47 680.44,-75.63 702.59,-73.94 791,-76.47 793.56,-76.54 796.21,-76.64 798.87,-76.76"/>
<polygon fill="black" stroke="black" points="798.75,-80.26 808.92,-77.3 799.12,-73.27 798.75,-80.26"/>
<text text-anchor="middle" x="481.5" y="-80.27" font-family="Times,serif" font-size="14.00">0/4611686018427387903</text>
</g>
<!-- 2&#45;&gt;3 -->
<g id="edge8" class="edge">
<title>2&#45;&gt;3</title>
<path fill="none" stroke="black" d="M463.48,-134.21C416.37,-135.83 280.56,-137.72 172,-111.47 167.74,-110.44 163.35,-108.97 159.14,-107.34"/>
<polygon fill="black" stroke="black" points="160.37,-104.06 149.79,-103.36 157.62,-110.5 160.37,-104.06"/>
<text text-anchor="middle" x="271.5" y="-137.27" font-family="Times,serif" font-size="14.00">&#45;10/4611686018427387903</text>
</g>
<!-- 2&#45;&gt;1 -->
<g id="edge9" class="edge">
<title>2&#45;&gt;1</title>
<path fill="none" stroke="black" d="M498.01,-125.97C518.84,-116.29 557.25,-99.84 592,-92.47 665.4,-76.9 754.45,-76.49 798.54,-77.49"/>
<polygon fill="black" stroke="black" points="798.65,-80.99 808.74,-77.76 798.83,-73.99 798.65,-80.99"/>
<text text-anchor="middle" x="691.5" y="-96.27" font-family="Times,serif" font-size="14.00">20/4611686018427387903</text>
</g>
<!-- 1&#45;&gt;3 -->
<g id="edge4" class="edge">
<title>1&#45;&gt;3</title>
<path fill="none" stroke="black" d="M814.33,-65.28C808.06,-59.1 799.82,-52.27 791,-48.47 701.94,-10.07 670.85,-30.59 574,-25.47 395.29,-16.02 328.92,37.56 172,-48.47 162.39,-53.74 154.35,-62.59 148.22,-71.2"/>
<polygon fill="black" stroke="black" points="145.28,-69.31 142.73,-79.59 151.13,-73.14 145.28,-69.31"/>
<text text-anchor="middle" x="481.5" y="-29.27" font-family="Times,serif" font-size="14.00">0/4611686018427387903</text>
</g>
<!-- 1&#45;&gt;2 -->
<g id="edge5" class="edge">
<title>1&#45;&gt;2</title>
<path fill="none" stroke="black" d="M815.24,-92.42C808.99,-99.43 800.48,-107.31 791,-111.47 694.66,-153.75 565.07,-144.2 509.57,-137.39"/>
<polygon fill="black" stroke="black" points="509.85,-133.89 499.49,-136.08 508.95,-140.84 509.85,-133.89"/>
<text text-anchor="middle" x="691.5" y="-146.27" font-family="Times,serif" font-size="14.00">&#45;20/4611686018427387903</text>
</g>
<!-- 4 -->
<g id="node5" class="node">
<title>4</title>
<ellipse fill="none" stroke="black" cx="940" cy="-78.47" rx="18" ry="18"/>
<text text-anchor="middle" x="940" y="-74.77" font-family="Times,serif" font-size="14.00">4</text>
</g>
<!-- 1&#45;&gt;4 -->
<g id="edge3" class="edge">
<title>1&#45;&gt;4</title>
<path fill="none" stroke="black" d="M845.34,-78.47C863.1,-78.47 890.96,-78.47 911.68,-78.47"/>
<polygon fill="black" stroke="black" points="911.78,-81.97 921.78,-78.47 911.78,-74.97 911.78,-81.97"/>
<text text-anchor="middle" x="883.5" y="-82.27" font-family="Times,serif" font-size="14.00">20/20</text>
</g>
</g>
</svg>
