<?xml version="1.0" encoding="UTF-8" standalone="no"?>
<!DOCTYPE svg PUBLIC "-//W3C//DTD SVG 1.1//EN"
 "http://www.w3.org/Graphics/SVG/1.1/DTD/svg11.dtd">
<!-- Generated by graphviz version 2.43.0 (0)
 -->
<!-- Title: out Pages: 1 -->
<svg width="4094pt" height="2095pt"
 viewBox="0.00 0.00 4094.00 2094.53" xmlns="http://www.w3.org/2000/svg" xmlns:xlink="http://www.w3.org/1999/xlink">
<g id="graph0" class="graph" transform="scale(1 1) rotate(0) translate(4 2090.53)">
<title>out</title>
<polygon fill="white" stroke="transparent" points="-4,4 -4,-2090.53 4090,-2090.53 4090,4 -4,4"/>
<!-- 0 -->
<g id="node1" class="node">
<title>0</title>
<ellipse fill="none" stroke="black" cx="18" cy="-701.53" rx="18" ry="18"/>
<text text-anchor="middle" x="18" y="-697.83" font-family="Times,serif" font-size="14.00">0</text>
</g>
<!-- 10 -->
<g id="node2" class="node">
<title>10</title>
<ellipse fill="none" stroke="black" cx="214.5" cy="-1179.53" rx="23" ry="23"/>
<text text-anchor="middle" x="214.5" y="-1175.83" font-family="Times,serif" font-size="14.00">10</text>
</g>
<!-- 0&#45;&gt;10 -->
<g id="edge1" class="edge">
<title>0&#45;&gt;10</title>
<path fill="none" stroke="black" d="M25.7,-717.99C53.99,-787.53 164.03,-1057.95 201.17,-1149.24"/>
<polygon fill="black" stroke="black" points="198.02,-1150.79 205.04,-1158.73 204.51,-1148.15 198.02,-1150.79"/>
<text text-anchor="middle" x="101.5" y="-1014.33" font-family="Times,serif" font-size="14.00">10399/10399</text>
</g>
<!-- 7 -->
<g id="node3" class="node">
<title>7</title>
<ellipse fill="none" stroke="black" cx="616.5" cy="-674.53" rx="18" ry="18"/>
<text text-anchor="middle" x="616.5" y="-670.83" font-family="Times,serif" font-size="14.00">7</text>
</g>
<!-- 0&#45;&gt;7 -->
<g id="edge2" class="edge">
<title>0&#45;&gt;7</title>
<path fill="none" stroke="black" d="M36.21,-700.75C119.98,-696.96 485.2,-680.43 588.31,-675.76"/>
<polygon fill="black" stroke="black" points="588.68,-679.25 598.51,-675.3 588.36,-672.26 588.68,-679.25"/>
<text text-anchor="middle" x="214.5" y="-698.33" font-family="Times,serif" font-size="14.00">12054/12054</text>
</g>
<!-- 6 -->
<g id="node4" class="node">
<title>6</title>
<ellipse fill="none" stroke="black" cx="4068" cy="-1318.53" rx="18" ry="18"/>
<text text-anchor="middle" x="4068" y="-1314.83" font-family="Times,serif" font-size="14.00">6</text>
</g>
<!-- 0&#45;&gt;6 -->
<g id="edge3" class="edge">
<title>0&#45;&gt;6</title>
<path fill="none" stroke="black" d="M18.88,-719.71C18.23,-839.17 16.28,-1513.02 54,-1714.53 85.98,-1885.35 39.72,-2071.53 213.5,-2071.53 213.5,-2071.53 213.5,-2071.53 3737.5,-2071.53 3870.34,-2071.53 3943.95,-2120 4032,-2020.53 4054.69,-1994.9 4064.5,-1474.55 4066.57,-1346.71"/>
<polygon fill="black" stroke="black" points="4070.07,-1346.61 4066.73,-1336.56 4063.07,-1346.5 4070.07,-1346.61"/>
<text text-anchor="middle" x="2051" y="-2075.33" font-family="Times,serif" font-size="14.00">11319/11319</text>
</g>
<!-- 5 -->
<g id="node5" class="node">
<title>5</title>
<ellipse fill="none" stroke="black" cx="3736.5" cy="-1280.53" rx="18" ry="18"/>
<text text-anchor="middle" x="3736.5" y="-1276.83" font-family="Times,serif" font-size="14.00">5</text>
</g>
<!-- 0&#45;&gt;5 -->
<g id="edge4" class="edge">
<title>0&#45;&gt;5</title>
<path fill="none" stroke="black" d="M18.65,-719.65C17.36,-799.04 14.89,-1123.88 54,-1386.53 97.11,-1676.05 -79.21,-2025.53 213.5,-2025.53 213.5,-2025.53 213.5,-2025.53 2296,-2025.53 2596.86,-2025.53 3411.34,-1983.33 3626,-1772.53 3693.26,-1706.48 3724.87,-1403.08 3733.19,-1308.66"/>
<polygon fill="black" stroke="black" points="3736.7,-1308.72 3734.07,-1298.45 3729.73,-1308.12 3736.7,-1308.72"/>
<text text-anchor="middle" x="1807" y="-2029.33" font-family="Times,serif" font-size="14.00">10191/10191</text>
</g>
<!-- 4 -->
<g id="node6" class="node">
<title>4</title>
<ellipse fill="none" stroke="black" cx="3330.5" cy="-929.53" rx="18" ry="18"/>
<text text-anchor="middle" x="3330.5" y="-925.83" font-family="Times,serif" font-size="14.00">4</text>
</g>
<!-- 0&#45;&gt;4 -->
<g id="edge5" class="edge">
<title>0&#45;&gt;4</title>
<path fill="none" stroke="black" d="M19.12,-683.47C19.88,-592.86 24.86,-190.28 54,-143.53 97.18,-74.28 131.89,-52.53 213.5,-52.53 213.5,-52.53 213.5,-52.53 1320,-52.53 1894.11,-52.53 2068.24,90.6 2611,-96.53 2928.41,-205.97 3055.54,-250.82 3220,-543.53 3241.21,-581.28 3226.51,-695.79 3238,-737.53 3255.63,-801.59 3293.68,-870.44 3314.73,-905.71"/>
<polygon fill="black" stroke="black" points="3311.78,-907.59 3319.94,-914.34 3317.77,-903.97 3311.78,-907.59"/>
<text text-anchor="middle" x="1563" y="-54.33" font-family="Times,serif" font-size="14.00">11041/11041</text>
</g>
<!-- 3 -->
<g id="node7" class="node">
<title>3</title>
<ellipse fill="none" stroke="black" cx="2924.5" cy="-697.53" rx="18" ry="18"/>
<text text-anchor="middle" x="2924.5" y="-693.83" font-family="Times,serif" font-size="14.00">3</text>
</g>
<!-- 0&#45;&gt;3 -->
<g id="edge6" class="edge">
<title>0&#45;&gt;3</title>
<path fill="none" stroke="black" d="M20.71,-683.72C30.81,-583.63 86.57,-95.53 213.5,-95.53 213.5,-95.53 213.5,-95.53 1808,-95.53 1898.61,-95.53 2530.69,-195.58 2611,-237.53 2724.37,-296.76 2742.46,-335.5 2814,-441.53 2865.39,-517.69 2900.83,-621.87 2915.67,-670.48"/>
<polygon fill="black" stroke="black" points="2912.38,-671.68 2918.61,-680.25 2919.08,-669.67 2912.38,-671.68"/>
<text text-anchor="middle" x="1319" y="-99.33" font-family="Times,serif" font-size="14.00">11541/11541</text>
</g>
<!-- 2 -->
<g id="node8" class="node">
<title>2</title>
<ellipse fill="none" stroke="black" cx="2518.5" cy="-691.53" rx="18" ry="18"/>
<text text-anchor="middle" x="2518.5" y="-687.83" font-family="Times,serif" font-size="14.00">2</text>
</g>
<!-- 0&#45;&gt;2 -->
<g id="edge7" class="edge">
<title>0&#45;&gt;2</title>
<path fill="none" stroke="black" d="M31.57,-689.1C85.06,-637.16 301.22,-436.99 524,-367.53 724.15,-305.13 2235.5,-352.37 2408,-471.53 2474.41,-517.41 2502.47,-615.63 2512.59,-663.78"/>
<polygon fill="black" stroke="black" points="2509.2,-664.67 2514.59,-673.8 2516.06,-663.31 2509.2,-664.67"/>
<text text-anchor="middle" x="1079.5" y="-346.33" font-family="Times,serif" font-size="14.00">11541/11541</text>
</g>
<!-- 1 -->
<g id="node9" class="node">
<title>1</title>
<ellipse fill="none" stroke="black" cx="2051" cy="-1347.53" rx="18" ry="18"/>
<text text-anchor="middle" x="2051" y="-1343.83" font-family="Times,serif" font-size="14.00">1</text>
</g>
<!-- 0&#45;&gt;1 -->
<g id="edge8" class="edge">
<title>0&#45;&gt;1</title>
<path fill="none" stroke="black" d="M19.95,-719.77C27.52,-857.74 83.16,-1735.83 280,-1887.53 451.38,-2019.62 901.71,-2026.15 1920,-1461.53 1965.01,-1436.58 2008.04,-1393.92 2031.55,-1368.46"/>
<polygon fill="black" stroke="black" points="2034.34,-1370.6 2038.48,-1360.84 2029.16,-1365.89 2034.34,-1370.6"/>
<text text-anchor="middle" x="840" y="-1948.33" font-family="Times,serif" font-size="14.00">8541/8541</text>
</g>
<!-- 10&#45;&gt;7 -->
<g id="edge31" class="edge">
<title>10&#45;&gt;7</title>
<path fill="none" stroke="black" d="M217.33,-1156.96C223.12,-1090.5 242.84,-897.1 280,-847.53 359.87,-740.99 524.31,-694.59 588.75,-679.98"/>
<polygon fill="black" stroke="black" points="589.54,-683.39 598.56,-677.83 588.04,-676.55 589.54,-683.39"/>
<text text-anchor="middle" x="393" y="-851.33" font-family="Times,serif" font-size="14.00">&#45;12054/4611686018427387903</text>
</g>
<!-- 10&#45;&gt;6 -->
<g id="edge32" class="edge">
<title>10&#45;&gt;6</title>
<path fill="none" stroke="black" d="M215.8,-1202.35C217.59,-1321.59 228.58,-1869.59 280,-1922.53 367.13,-2012.24 713.94,-1987.53 839,-1987.53 839,-1987.53 839,-1987.53 2296,-1987.53 2665.5,-1987.53 2757,-2025.53 3126.5,-2025.53 3126.5,-2025.53 3126.5,-2025.53 3737.5,-2025.53 3870.26,-2025.53 3943.67,-2074.65 4032,-1975.53 4053.21,-1951.73 4064.05,-1469.74 4066.47,-1346.85"/>
<polygon fill="black" stroke="black" points="4069.97,-1346.79 4066.67,-1336.73 4062.97,-1346.66 4069.97,-1346.79"/>
<text text-anchor="middle" x="2295" y="-1991.33" font-family="Times,serif" font-size="14.00">&#45;11319/4611686018427387903</text>
</g>
<!-- 10&#45;&gt;5 -->
<g id="edge33" class="edge">
<title>10&#45;&gt;5</title>
<path fill="none" stroke="black" d="M217.5,-1202.42C227.16,-1312.56 269.04,-1783.09 280,-1793.53 413.61,-1920.77 1753.69,-1876.22 1938,-1884.53 2046.43,-1889.42 2073.49,-1892.31 2182,-1894.53 2282.42,-1896.59 2307.56,-1894.66 2408,-1894.53 2588.44,-1894.31 2634.7,-1913.82 2814,-1893.53 2997.85,-1872.73 3058,-1890.9 3220,-1801.53 3229.91,-1796.07 3227.83,-1788.5 3238,-1783.53 3394.14,-1707.29 3496.39,-1851.26 3626,-1735.53 3690.86,-1677.62 3723.81,-1398.46 3732.87,-1308.52"/>
<polygon fill="black" stroke="black" points="3736.36,-1308.81 3733.85,-1298.52 3729.39,-1308.12 3736.36,-1308.81"/>
<text text-anchor="middle" x="2051" y="-1897.33" font-family="Times,serif" font-size="14.00">&#45;10191/4611686018427387903</text>
</g>
<!-- 10&#45;&gt;4 -->
<g id="edge34" class="edge">
<title>10&#45;&gt;4</title>
<path fill="none" stroke="black" d="M216.78,-1202.35C222.17,-1294.57 244.45,-1636.38 280,-1667.53 513.29,-1872.02 1366.46,-1688.16 1676,-1667.53 2003.51,-1645.71 2140.88,-1760.28 2408,-1569.53 2422.56,-1559.14 2412.49,-1545.26 2426,-1533.53 2497.84,-1471.14 2740.57,-1423.87 2832,-1397.53 3002.5,-1348.42 3091.61,-1426.01 3220,-1303.53 3319.67,-1208.45 3330.06,-1028.03 3330.14,-958.17"/>
<polygon fill="black" stroke="black" points="3333.64,-957.91 3330.08,-947.93 3326.64,-957.96 3333.64,-957.91"/>
<text text-anchor="middle" x="1807" y="-1675.33" font-family="Times,serif" font-size="14.00">&#45;11041/4611686018427387903</text>
</g>
<!-- 10&#45;&gt;3 -->
<g id="edge35" class="edge">
<title>10&#45;&gt;3</title>
<path fill="none" stroke="black" d="M218.27,-1156.78C226.37,-1089.3 250.22,-884.27 262,-713.53 263.8,-687.46 262.27,-262.73 280,-243.53 415.71,-96.54 527.94,-210.49 727,-190.53 1470.88,-115.97 1663.86,-179.66 2408,-251.53 2498.38,-260.26 2546.91,-210.22 2611,-274.53 2662.76,-326.47 2578.22,-385.63 2629,-438.53 2686.59,-498.53 2747.26,-416.93 2814,-466.53 2881.86,-516.97 2909.36,-620.28 2918.99,-669.83"/>
<polygon fill="black" stroke="black" points="2915.58,-670.62 2920.83,-679.82 2922.46,-669.35 2915.58,-670.62"/>
<text text-anchor="middle" x="1563" y="-178.33" font-family="Times,serif" font-size="14.00">&#45;11541/4611686018427387903</text>
</g>
<!-- 10&#45;&gt;2 -->
<g id="edge36" class="edge">
<title>10&#45;&gt;2</title>
<path fill="none" stroke="black" d="M217.94,-1156.76C225.12,-1089.2 246.71,-883.99 262,-713.53 264.25,-688.44 262.24,-505.39 280,-487.53 498.86,-267.51 1367.47,-416.1 1676,-449.53 2003.34,-485.01 2120.45,-403.14 2408,-563.53 2451.79,-587.96 2486.04,-637.08 2503.88,-666.86"/>
<polygon fill="black" stroke="black" points="2501.03,-668.92 2509.09,-675.79 2507.08,-665.39 2501.03,-668.92"/>
<text text-anchor="middle" x="1319" y="-423.33" font-family="Times,serif" font-size="14.00">&#45;11541/4611686018427387903</text>
</g>
<!-- 10&#45;&gt;1 -->
<g id="edge37" class="edge">
<title>10&#45;&gt;1</title>
<path fill="none" stroke="black" d="M216.64,-1202.64C220.42,-1268.63 234.97,-1455.57 280,-1492.53 591.91,-1748.61 784.46,-1501.67 1188,-1497.53 1296.46,-1496.42 1324.68,-1508.28 1432,-1492.53 1440.21,-1491.33 1441.85,-1489.1 1450,-1487.53 1501.59,-1477.64 1870.73,-1454.75 1920,-1436.53 1962.91,-1420.66 2005.25,-1387.53 2029.44,-1366.48"/>
<polygon fill="black" stroke="black" points="2032.06,-1368.83 2037.21,-1359.58 2027.41,-1363.6 2032.06,-1368.83"/>
<text text-anchor="middle" x="1079.5" y="-1525.33" font-family="Times,serif" font-size="14.00">&#45;8541/4611686018427387903</text>
</g>
<!-- 9 -->
<g id="node10" class="node">
<title>9</title>
<ellipse fill="none" stroke="black" cx="1563" cy="-1086.53" rx="18" ry="18"/>
<text text-anchor="middle" x="1563" y="-1082.83" font-family="Times,serif" font-size="14.00">9</text>
</g>
<!-- 10&#45;&gt;9 -->
<g id="edge29" class="edge">
<title>10&#45;&gt;9</title>
<path fill="none" stroke="black" d="M233.04,-1193.17C245.44,-1202.01 262.84,-1212.91 280,-1218.53 383.46,-1252.46 415.44,-1232.16 524,-1240.53 818.24,-1263.22 894.52,-1268.53 1188,-1237.53 1296.95,-1226.03 1332.67,-1248.75 1432,-1202.53 1479.47,-1180.44 1522.18,-1135.19 1544.86,-1108.2"/>
<polygon fill="black" stroke="black" points="1547.59,-1110.4 1551.24,-1100.46 1542.18,-1105.95 1547.59,-1110.4"/>
<text text-anchor="middle" x="840" y="-1262.33" font-family="Times,serif" font-size="14.00">86627/4611686018427387903</text>
</g>
<!-- 8 -->
<g id="node12" class="node">
<title>8</title>
<ellipse fill="none" stroke="black" cx="1079.5" cy="-1133.53" rx="18" ry="18"/>
<text text-anchor="middle" x="1079.5" y="-1129.83" font-family="Times,serif" font-size="14.00">8</text>
</g>
<!-- 10&#45;&gt;8 -->
<g id="edge30" class="edge">
<title>10&#45;&gt;8</title>
<path fill="none" stroke="black" d="M234.18,-1167.57C246.65,-1160.2 263.7,-1151.28 280,-1146.53 384.58,-1116.07 415.2,-1128.65 524,-1123.53 726.08,-1114.03 969.99,-1126.86 1050.92,-1131.77"/>
<polygon fill="black" stroke="black" points="1051.04,-1135.28 1061.24,-1132.41 1051.47,-1128.3 1051.04,-1135.28"/>
<text text-anchor="middle" x="616.5" y="-1127.33" font-family="Times,serif" font-size="14.00">0/4611686018427387903</text>
</g>
<!-- 7&#45;&gt;10 -->
<g id="edge38" class="edge">
<title>7&#45;&gt;10</title>
<path fill="none" stroke="black" d="M608.32,-690.78C592.79,-724.85 553.62,-805.35 506,-862.53 421.29,-964.25 362.43,-952.96 280,-1056.53 257.23,-1085.14 238.81,-1123.01 227.57,-1149.13"/>
<polygon fill="black" stroke="black" points="224.27,-1147.95 223.62,-1158.53 230.72,-1150.67 224.27,-1147.95"/>
<text text-anchor="middle" x="393" y="-1060.33" font-family="Times,serif" font-size="14.00">12054/4611686018427387903</text>
</g>
<!-- 7&#45;&gt;6 -->
<g id="edge41" class="edge">
<title>7&#45;&gt;6</title>
<path fill="none" stroke="black" d="M617.61,-656.42C619.02,-601.11 631.34,-433.28 727,-352.53 851.35,-247.58 1288.19,-253.73 1450,-236.53 2012.28,-176.77 2155.05,-169.53 2720.5,-169.53 2720.5,-169.53 2720.5,-169.53 3737.5,-169.53 3903.58,-169.53 3956.36,-251.68 4032,-399.53 4052.75,-440.09 4064.33,-1139.11 4066.59,-1289.98"/>
<polygon fill="black" stroke="black" points="4063.09,-1290.31 4066.74,-1300.26 4070.09,-1290.21 4063.09,-1290.31"/>
<text text-anchor="middle" x="2518.5" y="-175.33" font-family="Times,serif" font-size="14.00">0/4611686018427387903</text>
</g>
<!-- 7&#45;&gt;5 -->
<g id="edge42" class="edge">
<title>7&#45;&gt;5</title>
<path fill="none" stroke="black" d="M621.76,-692.07C636.01,-751.3 682.61,-949.5 709,-1115.53 714.69,-1151.31 707.92,-1246.75 727,-1277.53 794.94,-1387.14 857.9,-1372.58 971,-1434.53 983.84,-1441.57 1435.98,-1650.31 1450,-1654.53 1659.4,-1717.6 1719.69,-1704.58 1938,-1717.53 2598.08,-1756.69 2770.49,-1733.62 3423,-1626.53 3513.92,-1611.61 3556.4,-1644.91 3626,-1584.53 3709.97,-1511.69 3729.56,-1369.46 3734.12,-1308.92"/>
<polygon fill="black" stroke="black" points="3737.63,-1308.81 3734.81,-1298.6 3730.65,-1308.34 3737.63,-1308.81"/>
<text text-anchor="middle" x="2295" y="-1738.33" font-family="Times,serif" font-size="14.00">0/4611686018427387903</text>
</g>
<!-- 7&#45;&gt;4 -->
<g id="edge43" class="edge">
<title>7&#45;&gt;4</title>
<path fill="none" stroke="black" d="M617.8,-656.57C619.76,-603.32 633.56,-445.78 727,-376.53 754.07,-356.47 1904.32,-308.49 1938,-307.53 2038.4,-304.67 2063.75,-301.31 2164,-307.53 2454.56,-325.57 2541.87,-285.1 2814,-388.53 2925.43,-430.89 2932.13,-480.29 3035,-540.53 3114.07,-586.84 3165.21,-558.09 3220,-631.53 3248.57,-669.84 3223.58,-691.97 3238,-737.53 3258.04,-800.87 3295.11,-870.02 3315.37,-905.52"/>
<polygon fill="black" stroke="black" points="3312.35,-907.29 3320.38,-914.21 3318.41,-903.8 3312.35,-907.29"/>
<text text-anchor="middle" x="2051" y="-311.33" font-family="Times,serif" font-size="14.00">0/4611686018427387903</text>
</g>
<!-- 7&#45;&gt;3 -->
<g id="edge44" class="edge">
<title>7&#45;&gt;3</title>
<path fill="none" stroke="black" d="M633.06,-667.44C653.95,-658.28 692.42,-642.68 727,-635.53 935.81,-592.37 992.97,-617.67 1206,-608.53 1920.25,-577.91 2119.04,-482.83 2814,-650.53 2844.69,-657.94 2877.71,-673.22 2899.37,-684.35"/>
<polygon fill="black" stroke="black" points="2897.99,-687.58 2908.47,-689.13 2901.25,-681.39 2897.99,-687.58"/>
<text text-anchor="middle" x="1807" y="-578.33" font-family="Times,serif" font-size="14.00">0/4611686018427387903</text>
</g>
<!-- 7&#45;&gt;2 -->
<g id="edge45" class="edge">
<title>7&#45;&gt;2</title>
<path fill="none" stroke="black" d="M634.63,-674.48C748.14,-674.13 1403.84,-672.14 1938,-671.53 2146.89,-671.3 2199.96,-652.69 2408,-671.53 2436.61,-674.12 2468.92,-680.45 2490.99,-685.3"/>
<polygon fill="black" stroke="black" points="2490.41,-688.76 2500.93,-687.54 2491.95,-681.93 2490.41,-688.76"/>
<text text-anchor="middle" x="1563" y="-675.33" font-family="Times,serif" font-size="14.00">0/4611686018427387903</text>
</g>
<!-- 7&#45;&gt;1 -->
<g id="edge46" class="edge">
<title>7&#45;&gt;1</title>
<path fill="none" stroke="black" d="M632.07,-683.57C652.45,-695.7 691.03,-716.86 727,-726.53 826.26,-753.24 1116.51,-690.67 1188,-764.53 1216.08,-793.55 1180.33,-1096.36 1206,-1127.53 1271.77,-1207.43 1355.17,-1114.21 1432,-1183.53 1449.54,-1199.35 1431.55,-1218.79 1450,-1233.53 1529.06,-1296.72 1600.53,-1194.09 1676,-1261.53 1701.56,-1284.37 1667.41,-1314.9 1694,-1336.53 1743.94,-1377.17 1948.23,-1358.97 2022.68,-1350.77"/>
<polygon fill="black" stroke="black" points="2023.15,-1354.24 2032.69,-1349.64 2022.36,-1347.28 2023.15,-1354.24"/>
<text text-anchor="middle" x="1319" y="-1187.33" font-family="Times,serif" font-size="14.00">0/4611686018427387903</text>
</g>
<!-- 7&#45;&gt;9 -->
<g id="edge39" class="edge">
<title>7&#45;&gt;9</title>
<path fill="none" stroke="black" d="M631,-685.59C651.03,-701.62 690.23,-731.58 727,-751.53 1029.62,-915.76 1430.17,-1045.54 1535.64,-1078.44"/>
<polygon fill="black" stroke="black" points="1534.86,-1081.86 1545.45,-1081.48 1536.94,-1075.18 1534.86,-1081.86"/>
<text text-anchor="middle" x="1079.5" y="-959.33" font-family="Times,serif" font-size="14.00">0/4611686018427387903</text>
</g>
<!-- 7&#45;&gt;8 -->
<g id="edge40" class="edge">
<title>7&#45;&gt;8</title>
<path fill="none" stroke="black" d="M617.9,-692.83C620.12,-747.97 634.56,-914.02 727,-999.53 803.05,-1069.87 857.53,-1016.32 953,-1056.53 991.6,-1072.8 1032.21,-1099.79 1056.44,-1117.11"/>
<polygon fill="black" stroke="black" points="1054.44,-1119.99 1064.59,-1123.02 1058.55,-1114.32 1054.44,-1119.99"/>
<text text-anchor="middle" x="840" y="-1060.33" font-family="Times,serif" font-size="14.00">0/4611686018427387903</text>
</g>
<!-- 6&#45;&gt;10 -->
<g id="edge47" class="edge">
<title>6&#45;&gt;10</title>
<path fill="none" stroke="black" d="M4066.65,-1336.67C4064.64,-1435.44 4053.97,-1904.79 4032,-1925.53 3976.72,-1977.74 765.48,-1930.37 727,-1926.53 626.17,-1916.48 347.95,-1911.7 280,-1836.53 274.69,-1830.66 230.47,-1345.14 218.48,-1212.62"/>
<polygon fill="black" stroke="black" points="221.94,-1211.95 217.55,-1202.3 214.97,-1212.58 221.94,-1211.95"/>
<text text-anchor="middle" x="2295" y="-1950.33" font-family="Times,serif" font-size="14.00">11319/4611686018427387903</text>
</g>
<!-- 6&#45;&gt;7 -->
<g id="edge50" class="edge">
<title>6&#45;&gt;7</title>
<path fill="none" stroke="black" d="M4067.07,-1300.13C4067.52,-1157.23 4069.05,-229.37 4032,-184.53 3946.56,-81.13 3871.64,-118.53 3737.5,-118.53 2720.5,-118.53 2720.5,-118.53 2720.5,-118.53 2609.42,-118.53 811.88,-201.87 727,-273.53 668.76,-322.7 632.08,-563.76 621.03,-646.55"/>
<polygon fill="black" stroke="black" points="617.56,-646.13 619.73,-656.5 624.5,-647.04 617.56,-646.13"/>
<text text-anchor="middle" x="2518.5" y="-134.33" font-family="Times,serif" font-size="14.00">0/4611686018427387903</text>
</g>
<!-- 6&#45;&gt;5 -->
<g id="edge51" class="edge">
<title>6&#45;&gt;5</title>
<path fill="none" stroke="black" d="M4049.86,-1317.09C4012.79,-1313.9 3922.43,-1305.81 3847,-1296.53 3818.81,-1293.07 3786.67,-1288.27 3764.54,-1284.83"/>
<polygon fill="black" stroke="black" points="3764.96,-1281.36 3754.54,-1283.27 3763.88,-1288.27 3764.96,-1281.36"/>
<text text-anchor="middle" x="3939.5" y="-1318.33" font-family="Times,serif" font-size="14.00">0/4611686018427387903</text>
</g>
<!-- 6&#45;&gt;4 -->
<g id="edge52" class="edge">
<title>6&#45;&gt;4</title>
<path fill="none" stroke="black" d="M4060.77,-1301.83C4054.78,-1287.13 4044.78,-1265.63 4032,-1249.53 3885.52,-1064.95 3847.42,-989.18 3626,-908.53 3531.86,-874.24 3409.78,-904.56 3357.32,-920.81"/>
<polygon fill="black" stroke="black" points="3356.25,-917.48 3347.78,-923.85 3358.37,-924.15 3356.25,-917.48"/>
<text text-anchor="middle" x="3736.5" y="-1016.33" font-family="Times,serif" font-size="14.00">0/4611686018427387903</text>
</g>
<!-- 6&#45;&gt;3 -->
<g id="edge53" class="edge">
<title>6&#45;&gt;3</title>
<path fill="none" stroke="black" d="M4066.81,-1300.5C4065.56,-1190.66 4057.81,-615.57 4032,-589.53 3907.77,-464.23 3412.24,-561.7 3238,-589.53 3147.02,-604.07 3120.79,-597.94 3035,-631.53 3002.63,-644.21 2968.88,-666.08 2947.56,-681.15"/>
<polygon fill="black" stroke="black" points="2945.29,-678.46 2939.22,-687.14 2949.38,-684.15 2945.29,-678.46"/>
<text text-anchor="middle" x="3533.5" y="-560.33" font-family="Times,serif" font-size="14.00">0/4611686018427387903</text>
</g>
<!-- 6&#45;&gt;2 -->
<g id="edge54" class="edge">
<title>6&#45;&gt;2</title>
<path fill="none" stroke="black" d="M4066.9,-1300.42C4066.14,-1184.75 4060.73,-553.43 4032,-525.53 3967.27,-462.67 3919.23,-523.2 3829,-522.53 3293.15,-518.57 3140.57,-480.02 2629,-639.53 2598.2,-649.14 2565.02,-665.89 2543.35,-677.78"/>
<polygon fill="black" stroke="black" points="2541.56,-674.77 2534.54,-682.7 2544.97,-680.88 2541.56,-674.77"/>
<text text-anchor="middle" x="3330.5" y="-521.33" font-family="Times,serif" font-size="14.00">0/4611686018427387903</text>
</g>
<!-- 6&#45;&gt;1 -->
<g id="edge55" class="edge">
<title>6&#45;&gt;1</title>
<path fill="none" stroke="black" d="M4066.78,-1336.54C4065.71,-1409.95 4059.85,-1684.06 4032,-1709.53 3900.31,-1829.96 2597.2,-1747.87 2426,-1697.53 2303.2,-1661.43 2273.56,-1633.99 2182,-1544.53 2127.85,-1491.62 2084.14,-1412.47 2064.02,-1372.51"/>
<polygon fill="black" stroke="black" points="2067.11,-1370.87 2059.53,-1363.47 2060.84,-1373.98 2067.11,-1370.87"/>
<text text-anchor="middle" x="3127.5" y="-1769.33" font-family="Times,serif" font-size="14.00">0/4611686018427387903</text>
</g>
<!-- 6&#45;&gt;9 -->
<g id="edge48" class="edge">
<title>6&#45;&gt;9</title>
<path fill="none" stroke="black" d="M4052.11,-1327.03C4006.59,-1352.18 3864.59,-1424.53 3737.5,-1424.53 3126.5,-1424.53 3126.5,-1424.53 3126.5,-1424.53 2688.56,-1424.53 2592.08,-1305.91 2164,-1213.53 2063.63,-1191.87 2030.37,-1210.38 1938,-1165.53 1928.63,-1160.98 1929.55,-1154.67 1920,-1150.53 1827.14,-1110.28 1788.2,-1159.55 1694,-1122.53 1684.82,-1118.92 1685.03,-1113.5 1676,-1109.53 1648.55,-1097.47 1614.49,-1091.63 1591.19,-1088.88"/>
<polygon fill="black" stroke="black" points="1591.31,-1085.37 1580.99,-1087.79 1590.56,-1092.33 1591.31,-1085.37"/>
<text text-anchor="middle" x="2924.5" y="-1425.33" font-family="Times,serif" font-size="14.00">0/4611686018427387903</text>
</g>
<!-- 6&#45;&gt;8 -->
<g id="edge49" class="edge">
<title>6&#45;&gt;8</title>
<path fill="none" stroke="black" d="M4066.81,-1336.52C4065.85,-1413.91 4060.27,-1716.07 4032,-1746.53 3873.69,-1917.14 2169,-1826.91 1938,-1798.53 1766.88,-1777.52 1308.24,-1680.35 1206,-1541.53 1170.1,-1492.79 1203.2,-1465.12 1188,-1406.53 1163.46,-1311.94 1115.32,-1205.8 1092.74,-1158.55"/>
<polygon fill="black" stroke="black" points="1095.82,-1156.87 1088.33,-1149.38 1089.52,-1159.91 1095.82,-1156.87"/>
<text text-anchor="middle" x="2721.5" y="-1847.33" font-family="Times,serif" font-size="14.00">0/4611686018427387903</text>
</g>
<!-- 5&#45;&gt;10 -->
<g id="edge56" class="edge">
<title>5&#45;&gt;10</title>
<path fill="none" stroke="black" d="M3734.97,-1298.69C3732.35,-1354.29 3716.94,-1524.05 3626,-1617.53 3498.38,-1748.72 3392.72,-1657.76 3238,-1755.53 3228.44,-1761.58 3230.44,-1769.18 3220,-1773.53 3210.95,-1777.3 1817.81,-1779.53 1808,-1779.53 615.5,-1779.53 615.5,-1779.53 615.5,-1779.53 464.25,-1779.53 383.9,-1832.44 280,-1722.53 244.78,-1685.27 223.07,-1324.22 217.15,-1212.38"/>
<polygon fill="black" stroke="black" points="220.64,-1212.16 216.63,-1202.36 213.65,-1212.53 220.64,-1212.16"/>
<text text-anchor="middle" x="2051" y="-1782.33" font-family="Times,serif" font-size="14.00">10191/4611686018427387903</text>
</g>
<!-- 5&#45;&gt;7 -->
<g id="edge59" class="edge">
<title>5&#45;&gt;7</title>
<path fill="none" stroke="black" d="M3727.75,-1264.72C3709.22,-1226.05 3662.56,-1123.16 3644,-1031.53 3635.65,-990.32 3652.07,-686.52 3626,-653.53 3509.55,-506.21 3404.26,-572.78 3220,-536.53 2603.43,-415.23 2436.39,-463.53 1808,-463.53 1078.5,-463.53 1078.5,-463.53 1078.5,-463.53 917.24,-463.53 865.07,-470.21 727,-553.53 686.03,-578.26 651.45,-623.03 632.67,-650.63"/>
<polygon fill="black" stroke="black" points="629.54,-649.02 626.92,-659.28 635.37,-652.89 629.54,-649.02"/>
<text text-anchor="middle" x="2295" y="-462.33" font-family="Times,serif" font-size="14.00">0/4611686018427387903</text>
</g>
<!-- 5&#45;&gt;6 -->
<g id="edge60" class="edge">
<title>5&#45;&gt;6</title>
<path fill="none" stroke="black" d="M3754.16,-1275.65C3800.72,-1262.96 3935.19,-1232.89 4032,-1277.53 4040.01,-1281.23 4046.86,-1287.75 4052.33,-1294.53"/>
<polygon fill="black" stroke="black" points="4049.79,-1297 4058.49,-1303.05 4055.47,-1292.9 4049.79,-1297"/>
<text text-anchor="middle" x="3939.5" y="-1281.33" font-family="Times,serif" font-size="14.00">0/4611686018427387903</text>
</g>
<!-- 5&#45;&gt;4 -->
<g id="edge61" class="edge">
<title>5&#45;&gt;4</title>
<path fill="none" stroke="black" d="M3730.65,-1263.28C3718.87,-1224.19 3685.28,-1127.82 3626,-1070.53 3604.82,-1050.06 3423.93,-969.9 3356.61,-940.46"/>
<polygon fill="black" stroke="black" points="3357.74,-937.13 3347.17,-936.34 3354.94,-943.55 3357.74,-937.13"/>
<text text-anchor="middle" x="3533.5" y="-1074.33" font-family="Times,serif" font-size="14.00">0/4611686018427387903</text>
</g>
<!-- 5&#45;&gt;3 -->
<g id="edge62" class="edge">
<title>5&#45;&gt;3</title>
<path fill="none" stroke="black" d="M3727.81,-1264.7C3709.44,-1226 3663.1,-1123.05 3644,-1031.53 3637.11,-998.52 3649.08,-753.12 3626,-728.53 3533.08,-629.55 3070.28,-679.52 2952.7,-694.02"/>
<polygon fill="black" stroke="black" points="2951.91,-690.59 2942.42,-695.31 2952.78,-697.54 2951.91,-690.59"/>
<text text-anchor="middle" x="3330.5" y="-674.33" font-family="Times,serif" font-size="14.00">0/4611686018427387903</text>
</g>
<!-- 5&#45;&gt;2 -->
<g id="edge63" class="edge">
<title>5&#45;&gt;2</title>
<path fill="none" stroke="black" d="M3728.19,-1264.3C3710.85,-1225.11 3666.96,-1121.93 3644,-1031.53 3637.2,-1004.76 3644.5,-929.05 3626,-908.53 3501.33,-770.29 3403.13,-839 3220,-805.53 3138.6,-790.66 3116.92,-796.23 3035,-784.53 2853.73,-758.64 2808.85,-748.91 2629,-714.53 2600.63,-709.11 2568.28,-702.23 2546.14,-697.41"/>
<polygon fill="black" stroke="black" points="2546.68,-693.95 2536.16,-695.23 2545.18,-700.78 2546.68,-693.95"/>
<text text-anchor="middle" x="3127.5" y="-809.33" font-family="Times,serif" font-size="14.00">0/4611686018427387903</text>
</g>
<!-- 5&#45;&gt;1 -->
<g id="edge64" class="edge">
<title>5&#45;&gt;1</title>
<path fill="none" stroke="black" d="M3718.15,-1281.35C3652.83,-1284.42 3415.58,-1295.49 3220,-1303.53 2763.93,-1322.3 2207.54,-1342.06 2079.26,-1346.58"/>
<polygon fill="black" stroke="black" points="2079.02,-1343.08 2069.15,-1346.93 2079.27,-1350.08 2079.02,-1343.08"/>
<text text-anchor="middle" x="2924.5" y="-1322.33" font-family="Times,serif" font-size="14.00">0/4611686018427387903</text>
</g>
<!-- 5&#45;&gt;9 -->
<g id="edge57" class="edge">
<title>5&#45;&gt;9</title>
<path fill="none" stroke="black" d="M3720.36,-1272.34C3699.65,-1261.45 3661.03,-1242.34 3626,-1231.53 3275.63,-1123.41 3179.23,-1118.11 2814,-1085.53 2732.1,-1078.23 2701.83,-1047.37 2629,-1085.53 2616.55,-1092.06 2623.45,-1105.01 2611,-1111.53 2538.17,-1149.69 2508.21,-1112.73 2426,-1111.53 2097.07,-1106.76 1697.77,-1091.76 1591.21,-1087.61"/>
<polygon fill="black" stroke="black" points="1591.14,-1084.1 1581.01,-1087.21 1590.86,-1091.1 1591.14,-1084.1"/>
<text text-anchor="middle" x="2721.5" y="-1089.33" font-family="Times,serif" font-size="14.00">0/4611686018427387903</text>
</g>
<!-- 5&#45;&gt;8 -->
<g id="edge58" class="edge">
<title>5&#45;&gt;8</title>
<path fill="none" stroke="black" d="M3721.84,-1291.57C3701.93,-1307.13 3663.22,-1335.43 3626,-1351.53 3456.46,-1424.89 3401.49,-1406.11 3220,-1440.53 3039.72,-1474.72 2996.39,-1495.42 2814,-1515.53 2319.18,-1570.1 2189.13,-1582.24 1694,-1530.53 1583.81,-1519.03 1537.38,-1547.64 1450,-1479.53 1435.58,-1468.29 1446.88,-1453.17 1432,-1442.53 1349.66,-1383.67 1287.36,-1474.73 1206,-1414.53 1121.47,-1351.99 1092.73,-1219.52 1083.97,-1161.62"/>
<polygon fill="black" stroke="black" points="1087.39,-1160.8 1082.51,-1151.39 1080.46,-1161.78 1087.39,-1160.8"/>
<text text-anchor="middle" x="2518.5" y="-1557.33" font-family="Times,serif" font-size="14.00">0/4611686018427387903</text>
</g>
<!-- 4&#45;&gt;10 -->
<g id="edge65" class="edge">
<title>4&#45;&gt;10</title>
<path fill="none" stroke="black" d="M3329.31,-947.84C3327.68,-1002.94 3314.75,-1168.33 3220,-1247.53 3086.12,-1359.45 2999.44,-1258.41 2832,-1307.53 2806.23,-1315.1 2636.43,-1396.88 2611,-1405.53 2530.89,-1432.79 2485.24,-1390.1 2426,-1450.53 2400.18,-1476.87 2435.43,-1506.89 2408,-1531.53 2385.38,-1551.86 1350.41,-1653.53 1320,-1653.53 615.5,-1653.53 615.5,-1653.53 615.5,-1653.53 460.88,-1653.53 383.71,-1676.21 280,-1561.53 233.7,-1510.34 220.18,-1295.67 216.64,-1212.58"/>
<polygon fill="black" stroke="black" points="220.13,-1212.29 216.23,-1202.44 213.14,-1212.57 220.13,-1212.29"/>
<text text-anchor="middle" x="1807" y="-1620.33" font-family="Times,serif" font-size="14.00">11041/4611686018427387903</text>
</g>
<!-- 4&#45;&gt;7 -->
<g id="edge68" class="edge">
<title>4&#45;&gt;7</title>
<path fill="none" stroke="black" d="M3321.97,-913.67C3297.91,-863.06 3224.25,-708.49 3220,-704.53 3155.16,-644.22 3116.8,-664.47 3035,-630.53 2936.25,-589.57 2916.71,-565.2 2814,-535.53 2638.5,-484.85 2588.85,-497.27 2408,-471.53 1878.21,-396.14 1740.46,-374.82 1206,-401.53 992.31,-412.21 902.51,-327.16 727,-449.53 659.27,-496.76 631.75,-597.87 622.07,-646.83"/>
<polygon fill="black" stroke="black" points="618.62,-646.25 620.22,-656.73 625.5,-647.54 618.62,-646.25"/>
<text text-anchor="middle" x="2051" y="-441.33" font-family="Times,serif" font-size="14.00">0/4611686018427387903</text>
</g>
<!-- 4&#45;&gt;6 -->
<g id="edge69" class="edge">
<title>4&#45;&gt;6</title>
<path fill="none" stroke="black" d="M3346.95,-921.72C3367.71,-911.7 3406.04,-894.86 3441,-888.53 3610.73,-857.8 3664.66,-845.13 3829,-897.53 3931.3,-930.16 3975.06,-937.5 4032,-1028.53 4059.01,-1071.72 4065.18,-1225.69 4066.59,-1289.99"/>
<polygon fill="black" stroke="black" points="4063.09,-1290.29 4066.79,-1300.22 4070.09,-1290.15 4063.09,-1290.29"/>
<text text-anchor="middle" x="3736.5" y="-901.33" font-family="Times,serif" font-size="14.00">0/4611686018427387903</text>
</g>
<!-- 4&#45;&gt;5 -->
<g id="edge70" class="edge">
<title>4&#45;&gt;5</title>
<path fill="none" stroke="black" d="M3348.43,-925.58C3397.47,-915.21 3541.53,-892.36 3626,-959.53 3718.36,-1032.98 3733.22,-1188.15 3735.32,-1252.08"/>
<polygon fill="black" stroke="black" points="3731.82,-1252.32 3735.57,-1262.23 3738.82,-1252.15 3731.82,-1252.32"/>
<text text-anchor="middle" x="3533.5" y="-963.33" font-family="Times,serif" font-size="14.00">0/4611686018427387903</text>
</g>
<!-- 4&#45;&gt;3 -->
<g id="edge71" class="edge">
<title>4&#45;&gt;3</title>
<path fill="none" stroke="black" d="M3323.46,-912.68C3310.42,-879.03 3276.2,-803.77 3220,-769.53 3149.24,-726.43 3114.8,-768.81 3035,-746.53 3004.38,-737.99 2971.35,-722.21 2949.67,-710.87"/>
<polygon fill="black" stroke="black" points="2951.02,-707.63 2940.55,-706.01 2947.73,-713.8 2951.02,-707.63"/>
<text text-anchor="middle" x="3127.5" y="-773.33" font-family="Times,serif" font-size="14.00">0/4611686018427387903</text>
</g>
<!-- 4&#45;&gt;2 -->
<g id="edge72" class="edge">
<title>4&#45;&gt;2</title>
<path fill="none" stroke="black" d="M3316.95,-917.22C3297.82,-899.26 3259.39,-866.29 3220,-850.53 3189.23,-838.22 2659.81,-781.75 2629,-769.53 2594.33,-755.78 2560.28,-728.81 2539.58,-710.48"/>
<polygon fill="black" stroke="black" points="2541.84,-707.8 2532.08,-703.68 2537.14,-712.99 2541.84,-707.8"/>
<text text-anchor="middle" x="2924.5" y="-824.33" font-family="Times,serif" font-size="14.00">0/4611686018427387903</text>
</g>
<!-- 4&#45;&gt;1 -->
<g id="edge73" class="edge">
<title>4&#45;&gt;1</title>
<path fill="none" stroke="black" d="M3319.62,-943.9C3302.41,-967.69 3264.49,-1014.87 3220,-1037.53 3057.03,-1120.53 2995,-1078.36 2814,-1104.53 2732,-1116.39 2706.66,-1098.67 2629,-1127.53 2619.99,-1130.88 2619.83,-1135.72 2611,-1139.53 2588.54,-1149.22 2199.2,-1221.15 2182,-1238.53 2155.76,-1265.06 2190.11,-1293.88 2164,-1320.53 2141.95,-1343.04 2104.64,-1348.07 2079.19,-1348.61"/>
<polygon fill="black" stroke="black" points="2079.09,-1345.11 2069.09,-1348.61 2079.09,-1352.11 2079.09,-1345.11"/>
<text text-anchor="middle" x="2721.5" y="-1131.33" font-family="Times,serif" font-size="14.00">0/4611686018427387903</text>
</g>
<!-- 4&#45;&gt;9 -->
<g id="edge66" class="edge">
<title>4&#45;&gt;9</title>
<path fill="none" stroke="black" d="M3312.28,-928.45C3193.71,-921.17 2500.6,-881.1 2426,-934.53 2406.12,-948.77 2427.05,-971.19 2408,-986.53 2365.47,-1020.78 2218.25,-1009.31 2164,-1015.53 1955.21,-1039.49 1902.45,-1040.78 1694,-1067.53 1658.41,-1072.1 1617.46,-1078.23 1591.19,-1082.28"/>
<polygon fill="black" stroke="black" points="1590.56,-1078.83 1581.22,-1083.82 1591.63,-1085.75 1590.56,-1078.83"/>
<text text-anchor="middle" x="2518.5" y="-938.33" font-family="Times,serif" font-size="14.00">0/4611686018427387903</text>
</g>
<!-- 4&#45;&gt;8 -->
<g id="edge67" class="edge">
<title>4&#45;&gt;8</title>
<path fill="none" stroke="black" d="M3324.81,-946.92C3313.57,-985.22 3281.32,-1077.21 3220,-1124.53 3146.18,-1181.5 3107.75,-1156.09 3017,-1177.53 2927.25,-1198.74 2904.7,-1203.83 2814,-1220.53 2732.15,-1235.61 2710.41,-1232.26 2629,-1249.53 2419.66,-1293.95 2373.37,-1330.22 2164,-1374.53 2056.63,-1397.26 2029.42,-1404.06 1920,-1412.53 1819.86,-1420.28 1794.17,-1419.98 1694,-1412.53 1639.33,-1408.47 1251.68,-1369.86 1206,-1339.53 1140.45,-1296.02 1103.52,-1205.43 1088.51,-1160.29"/>
<polygon fill="black" stroke="black" points="1091.79,-1159.07 1085.4,-1150.62 1085.13,-1161.21 1091.79,-1159.07"/>
<text text-anchor="middle" x="2295" y="-1373.33" font-family="Times,serif" font-size="14.00">0/4611686018427387903</text>
</g>
<!-- 3&#45;&gt;10 -->
<g id="edge74" class="edge">
<title>3&#45;&gt;10</title>
<path fill="none" stroke="black" d="M2916.4,-680.86C2901.81,-648.47 2865.47,-576.62 2814,-535.53 2745.05,-480.48 2708.97,-500.8 2629,-463.53 2527.5,-416.24 2513.73,-379.42 2408,-342.53 2054.34,-219.14 1095.47,-151.2 727,-218.53 518.07,-256.71 405.51,-216.2 280,-387.53 258.56,-416.8 264.8,-677.36 262,-713.53 249.4,-876.17 227.99,-1070.11 219.32,-1146.39"/>
<polygon fill="black" stroke="black" points="215.79,-1146.44 218.13,-1156.77 222.74,-1147.24 215.79,-1146.44"/>
<text text-anchor="middle" x="1563" y="-221.33" font-family="Times,serif" font-size="14.00">11541/4611686018427387903</text>
</g>
<!-- 3&#45;&gt;7 -->
<g id="edge77" class="edge">
<title>3&#45;&gt;7</title>
<path fill="none" stroke="black" d="M2906.79,-692.65C2886.59,-685.96 2852.73,-672.14 2832,-649.53 2818,-634.26 2830.24,-619.4 2814,-606.53 2671.24,-493.4 2589.77,-562.41 2408,-550.53 2035.05,-526.17 1082.01,-487.69 727,-604.53 693.09,-615.69 659.28,-639.79 638.39,-656.58"/>
<polygon fill="black" stroke="black" points="636.02,-653.99 630.52,-663.04 640.47,-659.4 636.02,-653.99"/>
<text text-anchor="middle" x="1807" y="-531.33" font-family="Times,serif" font-size="14.00">0/4611686018427387903</text>
</g>
<!-- 3&#45;&gt;6 -->
<g id="edge78" class="edge">
<title>3&#45;&gt;6</title>
<path fill="none" stroke="black" d="M2941.54,-691.56C2962.62,-684.04 3000.98,-671.51 3035,-666.53 3124.28,-653.47 3147.77,-664.2 3238,-663.53 3606.14,-660.81 3811.49,-604.73 4032,-899.53 4055.35,-930.75 4064.1,-1201.55 4066.36,-1290.42"/>
<polygon fill="black" stroke="black" points="4062.86,-1290.65 4066.61,-1300.56 4069.86,-1290.47 4062.86,-1290.65"/>
<text text-anchor="middle" x="3533.5" y="-664.33" font-family="Times,serif" font-size="14.00">0/4611686018427387903</text>
</g>
<!-- 3&#45;&gt;5 -->
<g id="edge79" class="edge">
<title>3&#45;&gt;5</title>
<path fill="none" stroke="black" d="M2942.49,-697.01C3040.49,-694.4 3532.36,-686.73 3626,-792.53 3643.65,-812.47 3638.35,-1005.51 3644,-1031.53 3662.43,-1116.48 3703.42,-1211.5 3723.68,-1255.58"/>
<polygon fill="black" stroke="black" points="3720.52,-1257.09 3727.91,-1264.68 3726.87,-1254.14 3720.52,-1257.09"/>
<text text-anchor="middle" x="3330.5" y="-722.33" font-family="Times,serif" font-size="14.00">0/4611686018427387903</text>
</g>
<!-- 3&#45;&gt;4 -->
<g id="edge80" class="edge">
<title>3&#45;&gt;4</title>
<path fill="none" stroke="black" d="M2942.56,-699.24C3005.25,-705.54 3219.27,-727.05 3220,-727.53 3221.04,-728.23 3287.6,-851.7 3316.42,-905.24"/>
<polygon fill="black" stroke="black" points="3313.36,-906.94 3321.19,-914.08 3319.53,-903.62 3313.36,-906.94"/>
<text text-anchor="middle" x="3127.5" y="-731.33" font-family="Times,serif" font-size="14.00">0/4611686018427387903</text>
</g>
<!-- 3&#45;&gt;2 -->
<g id="edge81" class="edge">
<title>3&#45;&gt;2</title>
<path fill="none" stroke="black" d="M2907.53,-690.9C2886.52,-682.57 2848.24,-668.73 2814,-663.53 2732.71,-651.2 2710.58,-653.27 2629,-663.53 2599.92,-667.19 2567.51,-676.11 2545.54,-682.91"/>
<polygon fill="black" stroke="black" points="2544.42,-679.59 2535.95,-685.95 2546.54,-686.26 2544.42,-679.59"/>
<text text-anchor="middle" x="2721.5" y="-667.33" font-family="Times,serif" font-size="14.00">0/4611686018427387903</text>
</g>
<!-- 3&#45;&gt;1 -->
<g id="edge82" class="edge">
<title>3&#45;&gt;1</title>
<path fill="none" stroke="black" d="M2909.38,-707.99C2888.74,-724.09 2850.78,-757.07 2832,-794.53 2811.18,-836.08 2841.96,-860.41 2814,-897.53 2758.99,-970.57 2708.33,-942.07 2629,-987.53 2620.66,-992.31 2619.8,-995.65 2611,-999.53 2533.5,-1033.76 2488.2,-988.01 2426,-1045.53 2407.43,-1062.71 2427.57,-1083.5 2408,-1099.53 2329.69,-1163.66 2252.48,-1054.89 2182,-1127.53 2152.01,-1158.45 2192.2,-1287.97 2164,-1320.53 2143.26,-1344.48 2105.32,-1349.13 2079.39,-1349.2"/>
<polygon fill="black" stroke="black" points="2079.17,-1345.69 2069.1,-1348.99 2079.03,-1352.69 2079.17,-1345.69"/>
<text text-anchor="middle" x="2518.5" y="-1049.33" font-family="Times,serif" font-size="14.00">0/4611686018427387903</text>
</g>
<!-- 3&#45;&gt;9 -->
<g id="edge75" class="edge">
<title>3&#45;&gt;9</title>
<path fill="none" stroke="black" d="M2909.86,-708.72C2890.19,-725.5 2853.81,-759.03 2832,-794.53 2819.64,-814.66 2832.81,-830.24 2814,-844.53 2799.98,-855.18 2195.83,-880.64 2182,-891.53 2161.46,-907.71 2184.05,-930.76 2164,-947.53 2123.58,-981.34 1743.83,-993.4 1694,-1010.53 1653.26,-1024.54 1611.11,-1052 1586.24,-1069.79"/>
<polygon fill="black" stroke="black" points="1583.92,-1067.15 1577.9,-1075.87 1588.04,-1072.81 1583.92,-1067.15"/>
<text text-anchor="middle" x="2295" y="-895.33" font-family="Times,serif" font-size="14.00">0/4611686018427387903</text>
</g>
<!-- 3&#45;&gt;8 -->
<g id="edge76" class="edge">
<title>3&#45;&gt;8</title>
<path fill="none" stroke="black" d="M2906.31,-700.21C2851.77,-708.73 2683.01,-735.4 2629,-747.53 2537.57,-768.07 2509.66,-762.31 2426,-804.53 2416.95,-809.1 2417.33,-814.58 2408,-818.53 2314.6,-858.12 2281.31,-829.8 2182,-850.53 2173.87,-852.23 2172.16,-854.01 2164,-855.53 2064.78,-874 2038.18,-865.34 1938,-877.53 1611.62,-917.25 1493.27,-824.61 1206,-984.53 1153.33,-1013.86 1113.16,-1074.58 1093.62,-1108.76"/>
<polygon fill="black" stroke="black" points="1090.48,-1107.21 1088.67,-1117.65 1096.59,-1110.62 1090.48,-1107.21"/>
<text text-anchor="middle" x="2051" y="-881.33" font-family="Times,serif" font-size="14.00">0/4611686018427387903</text>
</g>
<!-- 2&#45;&gt;10 -->
<g id="edge83" class="edge">
<title>2&#45;&gt;10</title>
<path fill="none" stroke="black" d="M2503.46,-681.14C2483.4,-666.84 2444.85,-641.42 2408,-628.53 2200.92,-556.14 2138.74,-571.14 1920,-554.53 746.51,-465.45 859.04,-532.38 727,-553.53 520.5,-586.62 413.68,-539.7 280,-700.53 223.46,-768.56 216.3,-1049.46 215.53,-1146.43"/>
<polygon fill="black" stroke="black" points="212.03,-1146.52 215.47,-1156.54 219.03,-1146.56 212.03,-1146.52"/>
<text text-anchor="middle" x="1319" y="-524.33" font-family="Times,serif" font-size="14.00">11541/4611686018427387903</text>
</g>
<!-- 2&#45;&gt;7 -->
<g id="edge86" class="edge">
<title>2&#45;&gt;7</title>
<path fill="none" stroke="black" d="M2501.51,-685.14C2480.47,-677.1 2442.16,-663.71 2408,-658.53 1697.44,-550.81 810.02,-650.7 644.67,-671.08"/>
<polygon fill="black" stroke="black" points="643.92,-667.64 634.43,-672.35 644.79,-674.59 643.92,-667.64"/>
<text text-anchor="middle" x="1563" y="-615.33" font-family="Times,serif" font-size="14.00">0/4611686018427387903</text>
</g>
<!-- 2&#45;&gt;6 -->
<g id="edge87" class="edge">
<title>2&#45;&gt;6</title>
<path fill="none" stroke="black" d="M2530.13,-677.53C2548.14,-654.66 2586.84,-609.21 2629,-582.53 2827.56,-456.87 2891.51,-403.53 3126.5,-403.53 3126.5,-403.53 3126.5,-403.53 3737.5,-403.53 3874.36,-403.53 3948.27,-385.27 4032,-493.53 4056.87,-525.69 4065.15,-1148.71 4066.71,-1290.14"/>
<polygon fill="black" stroke="black" points="4063.21,-1290.59 4066.82,-1300.55 4070.21,-1290.51 4063.21,-1290.59"/>
<text text-anchor="middle" x="3330.5" y="-407.33" font-family="Times,serif" font-size="14.00">0/4611686018427387903</text>
</g>
<!-- 2&#45;&gt;5 -->
<g id="edge88" class="edge">
<title>2&#45;&gt;5</title>
<path fill="none" stroke="black" d="M2534.95,-683.72C2555.71,-673.7 2594.04,-656.86 2629,-650.53 2709.91,-635.88 2731.78,-650.43 2814,-650.53 2904.24,-650.64 3561.94,-604.97 3626,-668.53 3654.66,-696.98 3635.94,-991.96 3644,-1031.53 3661.34,-1116.7 3702.84,-1211.62 3723.46,-1255.63"/>
<polygon fill="black" stroke="black" points="3720.32,-1257.17 3727.76,-1264.71 3726.64,-1254.18 3720.32,-1257.17"/>
<text text-anchor="middle" x="3127.5" y="-644.33" font-family="Times,serif" font-size="14.00">0/4611686018427387903</text>
</g>
<!-- 2&#45;&gt;4 -->
<g id="edge89" class="edge">
<title>2&#45;&gt;4</title>
<path fill="none" stroke="black" d="M2530.23,-705.72C2548.11,-728.28 2586.27,-772.06 2629,-794.53 2690.45,-826.85 3181.68,-906.13 3302.66,-925.31"/>
<polygon fill="black" stroke="black" points="3302.15,-928.77 3312.57,-926.87 3303.24,-921.85 3302.15,-928.77"/>
<text text-anchor="middle" x="2924.5" y="-881.33" font-family="Times,serif" font-size="14.00">0/4611686018427387903</text>
</g>
<!-- 2&#45;&gt;3 -->
<g id="edge90" class="edge">
<title>2&#45;&gt;3</title>
<path fill="none" stroke="black" d="M2536.6,-691.79C2599.44,-692.72 2817.97,-695.97 2895.75,-697.12"/>
<polygon fill="black" stroke="black" points="2896.12,-700.63 2906.17,-697.28 2896.22,-693.63 2896.12,-700.63"/>
<text text-anchor="middle" x="2721.5" y="-699.33" font-family="Times,serif" font-size="14.00">0/4611686018427387903</text>
</g>
<!-- 2&#45;&gt;1 -->
<g id="edge91" class="edge">
<title>2&#45;&gt;1</title>
<path fill="none" stroke="black" d="M2510.57,-707.92C2486.69,-764.38 2409.21,-947.43 2408,-948.53 2330.07,-1019.72 2246.65,-938.1 2182,-1021.53 2141.23,-1074.15 2206.74,-1269.5 2164,-1320.53 2143.57,-1344.93 2105.28,-1349.43 2079.22,-1349.34"/>
<polygon fill="black" stroke="black" points="2079.31,-1345.84 2069.22,-1349.09 2079.13,-1352.84 2079.31,-1345.84"/>
<text text-anchor="middle" x="2295" y="-1025.33" font-family="Times,serif" font-size="14.00">0/4611686018427387903</text>
</g>
<!-- 2&#45;&gt;9 -->
<g id="edge84" class="edge">
<title>2&#45;&gt;9</title>
<path fill="none" stroke="black" d="M2502.52,-700.54C2481.97,-712.44 2443.54,-733.11 2408,-743.53 2254.31,-788.59 1824.46,-748.64 1694,-841.53 1618.22,-895.49 1582.78,-1007.54 1569.95,-1059.27"/>
<polygon fill="black" stroke="black" points="1566.53,-1058.52 1567.62,-1069.06 1573.34,-1060.15 1566.53,-1058.52"/>
<text text-anchor="middle" x="2051" y="-784.33" font-family="Times,serif" font-size="14.00">0/4611686018427387903</text>
</g>
<!-- 2&#45;&gt;8 -->
<g id="edge85" class="edge">
<title>2&#45;&gt;8</title>
<path fill="none" stroke="black" d="M2500.35,-689.85C2398.13,-680.37 1859.72,-638.57 1450,-764.53 1338.61,-798.78 1278.94,-769.65 1206,-860.53 1173.9,-900.54 1206.81,-926.81 1188,-974.53 1166.42,-1029.27 1123.47,-1084.14 1098.89,-1112.92"/>
<polygon fill="black" stroke="black" points="1096.09,-1110.8 1092.19,-1120.65 1101.38,-1115.39 1096.09,-1110.8"/>
<text text-anchor="middle" x="1807" y="-711.33" font-family="Times,serif" font-size="14.00">0/4611686018427387903</text>
</g>
<!-- 1&#45;&gt;10 -->
<g id="edge92" class="edge">
<title>1&#45;&gt;10</title>
<path fill="none" stroke="black" d="M2035.63,-1357.38C2012.52,-1372.57 1965.08,-1401.04 1920,-1411.53 1822.17,-1434.31 1794.27,-1417.5 1694,-1411.53 1062.2,-1373.91 850.92,-1515.72 280,-1242.53 262.46,-1234.14 246.76,-1219.06 235.24,-1205.76"/>
<polygon fill="black" stroke="black" points="237.7,-1203.25 228.62,-1197.78 232.31,-1207.71 237.7,-1203.25"/>
<text text-anchor="middle" x="1079.5" y="-1419.33" font-family="Times,serif" font-size="14.00">8541/4611686018427387903</text>
</g>
<!-- 1&#45;&gt;7 -->
<g id="edge95" class="edge">
<title>1&#45;&gt;7</title>
<path fill="none" stroke="black" d="M2033.03,-1346.38C1963.92,-1341.63 1706.63,-1323.2 1694,-1311.53 1661.15,-1281.18 1703.73,-1247.62 1676,-1212.53 1608,-1126.5 1520.77,-1197.3 1450,-1113.53 1428.71,-1088.34 1446.41,-1071.21 1432,-1041.53 1354.65,-882.23 1343.66,-810.97 1188,-726.53 1097.64,-677.52 829.23,-699.28 727,-688.53 698.83,-685.57 666.68,-681.36 644.54,-678.33"/>
<polygon fill="black" stroke="black" points="644.93,-674.85 634.54,-676.95 643.97,-681.79 644.93,-674.85"/>
<text text-anchor="middle" x="1319" y="-1045.33" font-family="Times,serif" font-size="14.00">0/4611686018427387903</text>
</g>
<!-- 1&#45;&gt;6 -->
<g id="edge96" class="edge">
<title>1&#45;&gt;6</title>
<path fill="none" stroke="black" d="M2059.07,-1363.76C2075.18,-1398.55 2118.2,-1480.08 2182,-1516.53 2269.88,-1566.75 2313.8,-1507.52 2408,-1544.53 2417.18,-1548.14 2416.71,-1554.2 2426,-1557.53 2596.18,-1618.64 2651.28,-1577.75 2832,-1583.53 3254.23,-1597.04 3955.72,-1645.56 4032,-1578.53 4066.05,-1548.61 4068.31,-1408.03 4067.63,-1346.97"/>
<polygon fill="black" stroke="black" points="4071.13,-1346.82 4067.48,-1336.87 4064.13,-1346.92 4071.13,-1346.82"/>
<text text-anchor="middle" x="3127.5" y="-1602.33" font-family="Times,serif" font-size="14.00">0/4611686018427387903</text>
</g>
<!-- 1&#45;&gt;5 -->
<g id="edge97" class="edge">
<title>1&#45;&gt;5</title>
<path fill="none" stroke="black" d="M2064.14,-1360.33C2085.52,-1381.85 2132.36,-1424.48 2182,-1440.53 2358.55,-1497.63 2832.6,-1464.19 3017,-1443.53 3292.39,-1412.69 3616.26,-1317.31 3709.31,-1288.72"/>
<polygon fill="black" stroke="black" points="3710.5,-1292.01 3719.03,-1285.72 3708.44,-1285.32 3710.5,-1292.01"/>
<text text-anchor="middle" x="2924.5" y="-1463.33" font-family="Times,serif" font-size="14.00">0/4611686018427387903</text>
</g>
<!-- 1&#45;&gt;4 -->
<g id="edge98" class="edge">
<title>1&#45;&gt;4</title>
<path fill="none" stroke="black" d="M2069.05,-1346.44C2092.02,-1344.31 2133.53,-1338.16 2164,-1320.53 2174.07,-1314.71 2171.86,-1307.23 2182,-1301.53 2387.72,-1185.93 3024.07,-1209.04 3220,-1077.53 3266.62,-1046.24 3300.82,-988.21 3317.69,-954.87"/>
<polygon fill="black" stroke="black" points="3320.89,-956.28 3322.18,-945.76 3314.62,-953.19 3320.89,-956.28"/>
<text text-anchor="middle" x="2721.5" y="-1207.33" font-family="Times,serif" font-size="14.00">0/4611686018427387903</text>
</g>
<!-- 1&#45;&gt;3 -->
<g id="edge99" class="edge">
<title>1&#45;&gt;3</title>
<path fill="none" stroke="black" d="M2069.28,-1348.78C2094.09,-1349.55 2139.51,-1346.92 2164,-1320.53 2197.7,-1284.23 2150.15,-1248.48 2182,-1210.53 2198.23,-1191.19 2587.79,-1070.48 2611,-1060.53 2704.18,-1020.6 2756.43,-1039.97 2814,-956.53 2855.14,-896.91 2801.57,-860.28 2832,-794.53 2847.62,-760.78 2879.68,-731.18 2901.38,-713.82"/>
<polygon fill="black" stroke="black" points="2903.67,-716.48 2909.42,-707.58 2899.38,-710.95 2903.67,-716.48"/>
<text text-anchor="middle" x="2518.5" y="-1124.33" font-family="Times,serif" font-size="14.00">0/4611686018427387903</text>
</g>
<!-- 1&#45;&gt;2 -->
<g id="edge100" class="edge">
<title>1&#45;&gt;2</title>
<path fill="none" stroke="black" d="M2069.16,-1349.04C2094.26,-1350.18 2140.53,-1348.1 2164,-1320.53 2198.09,-1280.48 2147.37,-1124.12 2182,-1084.53 2249.62,-1007.25 2338,-1111.66 2408,-1036.53 2427.73,-1015.36 2418.29,-935.43 2426,-907.53 2445.95,-835.34 2484.46,-755.39 2504.57,-716.1"/>
<polygon fill="black" stroke="black" points="2507.78,-717.5 2509.26,-707.01 2501.56,-714.29 2507.78,-717.5"/>
<text text-anchor="middle" x="2295" y="-1088.33" font-family="Times,serif" font-size="14.00">0/4611686018427387903</text>
</g>
<!-- 1&#45;&gt;9 -->
<g id="edge93" class="edge">
<title>1&#45;&gt;9</title>
<path fill="none" stroke="black" d="M2032.86,-1348.65C2008.22,-1349.26 1963.01,-1346.43 1938,-1320.53 1910.27,-1291.82 1949.67,-1259.25 1920,-1232.53 1882.5,-1198.77 1731.87,-1243.88 1694,-1210.53 1666.97,-1186.74 1699.37,-1158.93 1676,-1131.53 1654.58,-1106.43 1617.12,-1095.18 1591.47,-1090.24"/>
<polygon fill="black" stroke="black" points="1591.73,-1086.73 1581.28,-1088.49 1590.54,-1093.63 1591.73,-1086.73"/>
<text text-anchor="middle" x="1807" y="-1236.33" font-family="Times,serif" font-size="14.00">0/4611686018427387903</text>
</g>
<!-- 1&#45;&gt;8 -->
<g id="edge94" class="edge">
<title>1&#45;&gt;8</title>
<path fill="none" stroke="black" d="M2033.23,-1350.87C1970.19,-1363.04 1748.16,-1402.2 1694,-1361.53 1671.06,-1344.3 1697.43,-1318.61 1676,-1299.53 1599.93,-1231.81 1549.79,-1281.96 1450,-1261.53 1340.7,-1239.16 1310.02,-1242.88 1206,-1202.53 1168.38,-1187.94 1128.03,-1164.13 1103.52,-1148.64"/>
<polygon fill="black" stroke="black" points="1105.26,-1145.59 1094.95,-1143.15 1101.48,-1151.49 1105.26,-1145.59"/>
<text text-anchor="middle" x="1563" y="-1303.33" font-family="Times,serif" font-size="14.00">0/4611686018427387903</text>
</g>
<!-- 9&#45;&gt;10 -->
<g id="edge10" class="edge">
<title>9&#45;&gt;10</title>
<path fill="none" stroke="black" d="M1548.75,-1097.99C1526.45,-1116.44 1479.23,-1152.02 1432,-1165.53 977.82,-1295.54 388.63,-1209.05 247.07,-1185.14"/>
<polygon fill="black" stroke="black" points="247.37,-1181.64 236.93,-1183.4 246.19,-1188.54 247.37,-1181.64"/>
<text text-anchor="middle" x="840" y="-1238.33" font-family="Times,serif" font-size="14.00">&#45;86627/4611686018427387903</text>
</g>
<!-- 9&#45;&gt;7 -->
<g id="edge12" class="edge">
<title>9&#45;&gt;7</title>
<path fill="none" stroke="black" d="M1559.54,-1068.59C1551.62,-1018.26 1521.8,-875.27 1432,-810.53 1368.01,-764.4 802.79,-748.41 727,-726.53 696,-717.59 662.86,-700.71 641.26,-688.6"/>
<polygon fill="black" stroke="black" points="642.89,-685.5 632.47,-683.58 639.42,-691.58 642.89,-685.5"/>
<text text-anchor="middle" x="1079.5" y="-770.33" font-family="Times,serif" font-size="14.00">0/4611686018427387903</text>
</g>
<!-- 9&#45;&gt;6 -->
<g id="edge13" class="edge">
<title>9&#45;&gt;6</title>
<path fill="none" stroke="black" d="M1581.12,-1085.56C1604.92,-1085.12 1648.21,-1087.72 1676,-1109.53 1690.7,-1121.07 1678.85,-1136.59 1694,-1147.53 1776.03,-1206.82 1837.97,-1116.24 1920,-1175.53 1935.15,-1186.48 1923.22,-1202.1 1938,-1213.53 2018.89,-1276.08 2065.05,-1230.8 2164,-1256.53 2466.78,-1335.28 2533.35,-1385.34 2832,-1478.53 2962.16,-1519.15 2990.14,-1564.53 3126.5,-1564.53 3126.5,-1564.53 3126.5,-1564.53 3737.5,-1564.53 3879.87,-1564.53 3937.58,-1545.08 4032,-1438.53 4054.64,-1412.98 4062.68,-1373.52 4065.5,-1346.89"/>
<polygon fill="black" stroke="black" points="4069.01,-1346.95 4066.4,-1336.68 4062.04,-1346.34 4069.01,-1346.95"/>
<text text-anchor="middle" x="2924.5" y="-1554.33" font-family="Times,serif" font-size="14.00">0/4611686018427387903</text>
</g>
<!-- 9&#45;&gt;5 -->
<g id="edge14" class="edge">
<title>9&#45;&gt;5</title>
<path fill="none" stroke="black" d="M1581.23,-1087.94C1648.05,-1093.45 1887.86,-1113.85 1920,-1125.53 1929.04,-1128.82 1928.84,-1134.62 1938,-1137.53 2123.57,-1196.62 2619.85,-1147.37 2814,-1162.53 3169.59,-1190.31 3598.45,-1258.15 3708.67,-1276.11"/>
<polygon fill="black" stroke="black" points="3708.17,-1279.57 3718.6,-1277.73 3709.3,-1272.67 3708.17,-1279.57"/>
<text text-anchor="middle" x="2721.5" y="-1166.33" font-family="Times,serif" font-size="14.00">0/4611686018427387903</text>
</g>
<!-- 9&#45;&gt;4 -->
<g id="edge15" class="edge">
<title>9&#45;&gt;4</title>
<path fill="none" stroke="black" d="M1581.22,-1084.77C1606.09,-1082.3 1653.52,-1077.85 1694,-1075.53 1720.08,-1074.04 2140.56,-1073.07 2164,-1061.53 2175.33,-1055.95 2170.94,-1045.64 2182,-1039.53 2270.62,-990.64 2323.56,-1067.34 2408,-1011.53 2421.29,-1002.75 2412.38,-988.8 2426,-980.53 2501.49,-934.7 3132.02,-951.2 3220,-943.53 3248.22,-941.08 3280.36,-936.79 3302.48,-933.6"/>
<polygon fill="black" stroke="black" points="3303.09,-937.05 3312.48,-932.14 3302.07,-930.13 3303.09,-937.05"/>
<text text-anchor="middle" x="2518.5" y="-984.33" font-family="Times,serif" font-size="14.00">0/4611686018427387903</text>
</g>
<!-- 9&#45;&gt;3 -->
<g id="edge16" class="edge">
<title>9&#45;&gt;3</title>
<path fill="none" stroke="black" d="M1578.5,-1077.26C1601.8,-1062.9 1649.48,-1035.66 1694,-1023.53 1795.1,-995.99 2081.88,-1050.62 2164,-985.53 2184.49,-969.29 2161.54,-945.81 2182,-929.53 2221.45,-898.16 2357.99,-916.79 2408,-910.53 2416.05,-909.53 2417.96,-908.6 2426,-907.53 2511.89,-896.18 2748.66,-926.43 2814,-869.53 2839.85,-847.02 2815.69,-824.68 2832,-794.53 2849.6,-762 2880.88,-732.29 2901.9,-714.55"/>
<polygon fill="black" stroke="black" points="2904.19,-717.2 2909.67,-708.14 2899.73,-711.8 2904.19,-717.2"/>
<text text-anchor="middle" x="2295" y="-933.33" font-family="Times,serif" font-size="14.00">0/4611686018427387903</text>
</g>
<!-- 9&#45;&gt;2 -->
<g id="edge17" class="edge">
<title>9&#45;&gt;2</title>
<path fill="none" stroke="black" d="M1574.96,-1072.97C1595.93,-1047.69 1644.11,-992.72 1694,-957.53 1792.28,-888.21 1822.34,-873.49 1938,-840.53 1988.52,-826.14 2366.82,-822.14 2408,-789.53 2426.84,-774.61 2410.19,-756.64 2426,-738.53 2443.28,-718.74 2470.93,-706.17 2491.31,-699.06"/>
<polygon fill="black" stroke="black" points="2492.52,-702.35 2500.94,-695.92 2490.34,-695.7 2492.52,-702.35"/>
<text text-anchor="middle" x="2051" y="-844.33" font-family="Times,serif" font-size="14.00">0/4611686018427387903</text>
</g>
<!-- 9&#45;&gt;1 -->
<g id="edge18" class="edge">
<title>9&#45;&gt;1</title>
<path fill="none" stroke="black" d="M1581.15,-1088.19C1606.23,-1091.6 1652.48,-1101.78 1676,-1131.53 1709.44,-1173.84 1656.79,-1212.5 1694,-1251.53 1764.67,-1325.66 1833.33,-1241.96 1920,-1296.53 1931.28,-1303.64 1926.86,-1313.2 1938,-1320.53 1963.5,-1337.31 1998.41,-1343.68 2022.44,-1346.09"/>
<polygon fill="black" stroke="black" points="2022.38,-1349.6 2032.64,-1346.94 2022.96,-1342.62 2022.38,-1349.6"/>
<text text-anchor="middle" x="1807" y="-1300.33" font-family="Times,serif" font-size="14.00">0/4611686018427387903</text>
</g>
<!-- 11 -->
<g id="node11" class="node">
<title>11</title>
<ellipse fill="none" stroke="black" cx="2051" cy="-1288.53" rx="23" ry="23"/>
<text text-anchor="middle" x="2051" y="-1284.83" font-family="Times,serif" font-size="14.00">11</text>
</g>
<!-- 9&#45;&gt;11 -->
<g id="edge9" class="edge">
<title>9&#45;&gt;11</title>
<path fill="none" stroke="black" d="M1580.99,-1089.21C1605.04,-1093.83 1649.06,-1105.43 1676,-1131.53 1690.29,-1145.38 1677.91,-1160.82 1694,-1172.53 1775.62,-1231.95 1841.53,-1132 1920,-1195.53 1940.32,-1211.98 1919.59,-1232.97 1938,-1251.53 1959.2,-1272.9 1992.98,-1281.93 2017.91,-1285.75"/>
<polygon fill="black" stroke="black" points="2017.61,-1289.24 2027.98,-1287.08 2018.53,-1282.3 2017.61,-1289.24"/>
<text text-anchor="middle" x="1807" y="-1199.33" font-family="Times,serif" font-size="14.00">442/442</text>
</g>
<!-- 9&#45;&gt;8 -->
<g id="edge11" class="edge">
<title>9&#45;&gt;8</title>
<path fill="none" stroke="black" d="M1544.9,-1087.22C1493.49,-1089.4 1335.83,-1096.96 1206,-1112.53 1171.84,-1116.63 1132.79,-1123.51 1107.45,-1128.28"/>
<polygon fill="black" stroke="black" points="1106.65,-1124.87 1097.48,-1130.18 1107.96,-1131.74 1106.65,-1124.87"/>
<text text-anchor="middle" x="1319" y="-1116.33" font-family="Times,serif" font-size="14.00">86185/4611686018427387903</text>
</g>
<!-- 8&#45;&gt;10 -->
<g id="edge20" class="edge">
<title>8&#45;&gt;10</title>
<path fill="none" stroke="black" d="M1061.24,-1133.87C993.04,-1135.24 735.66,-1140.78 524,-1150.53 415.47,-1155.53 387.62,-1150.63 280,-1165.53 269.1,-1167.04 257.31,-1169.39 246.82,-1171.73"/>
<polygon fill="black" stroke="black" points="245.8,-1168.37 236.85,-1174.04 247.39,-1175.19 245.8,-1168.37"/>
<text text-anchor="middle" x="616.5" y="-1154.33" font-family="Times,serif" font-size="14.00">0/4611686018427387903</text>
</g>
<!-- 8&#45;&gt;7 -->
<g id="edge22" class="edge">
<title>8&#45;&gt;7</title>
<path fill="none" stroke="black" d="M1068.93,-1118.85C1049.69,-1090.2 1003.83,-1026.02 953,-984.53 864.41,-912.22 809.12,-941.12 727,-861.53 677.92,-813.96 643.35,-739.73 627.42,-700.63"/>
<polygon fill="black" stroke="black" points="630.64,-699.26 623.68,-691.26 624.13,-701.85 630.64,-699.26"/>
<text text-anchor="middle" x="840" y="-988.33" font-family="Times,serif" font-size="14.00">0/4611686018427387903</text>
</g>
<!-- 8&#45;&gt;6 -->
<g id="edge23" class="edge">
<title>8&#45;&gt;6</title>
<path fill="none" stroke="black" d="M1088.76,-1149.28C1109.8,-1190.29 1165.37,-1304.33 1188,-1406.53 1202.25,-1470.87 1170.47,-1647.03 1206,-1702.53 1272.36,-1806.2 1331.36,-1800.75 1450,-1833.53 1539.87,-1858.37 3033.26,-1911.53 3126.5,-1911.53 3126.5,-1911.53 3126.5,-1911.53 3737.5,-1911.53 3868.82,-1911.53 3940.07,-1981.31 4032,-1887.53 4070.1,-1848.67 4068.57,-1456.57 4067.38,-1346.9"/>
<polygon fill="black" stroke="black" points="4070.88,-1346.58 4067.26,-1336.62 4063.88,-1346.66 4070.88,-1346.58"/>
<text text-anchor="middle" x="2721.5" y="-1905.33" font-family="Times,serif" font-size="14.00">0/4611686018427387903</text>
</g>
<!-- 8&#45;&gt;5 -->
<g id="edge24" class="edge">
<title>8&#45;&gt;5</title>
<path fill="none" stroke="black" d="M1086.96,-1150.27C1111.19,-1212.91 1195.74,-1430.45 1206,-1442.53 1360.26,-1624.13 1458.24,-1630.02 1694,-1664.53 2365.39,-1762.81 2546.92,-1703.46 3220,-1617.53 3402.87,-1594.19 3483.07,-1648.98 3626,-1532.53 3697.27,-1474.47 3723.29,-1361.01 3731.8,-1308.47"/>
<polygon fill="black" stroke="black" points="3735.27,-1308.93 3733.32,-1298.51 3728.35,-1307.87 3735.27,-1308.93"/>
<text text-anchor="middle" x="2518.5" y="-1715.33" font-family="Times,serif" font-size="14.00">0/4611686018427387903</text>
</g>
<!-- 8&#45;&gt;4 -->
<g id="edge25" class="edge">
<title>8&#45;&gt;4</title>
<path fill="none" stroke="black" d="M1083.3,-1151.2C1091.86,-1198.76 1122.36,-1329.93 1206,-1389.53 1247.21,-1418.9 1382.79,-1405.72 1432,-1417.53 1552.44,-1446.44 1572.01,-1491.1 1694,-1512.53 1792.93,-1529.91 1819.82,-1519.88 1920,-1512.53 2138.65,-1496.49 2220.71,-1554.49 2408,-1440.53 2419.7,-1433.42 2414.7,-1423.27 2426,-1415.53 2496.09,-1367.55 2551.1,-1427.77 2611,-1367.53 2633.95,-1344.45 2604.75,-1318.25 2629,-1296.53 2727.79,-1208.09 3116.15,-1296.97 3220,-1214.53 3301.71,-1149.67 3322.5,-1016.09 3327.75,-957.79"/>
<polygon fill="black" stroke="black" points="3331.27,-957.74 3328.58,-947.49 3324.29,-957.18 3331.27,-957.74"/>
<text text-anchor="middle" x="2295" y="-1516.33" font-family="Times,serif" font-size="14.00">0/4611686018427387903</text>
</g>
<!-- 8&#45;&gt;3 -->
<g id="edge26" class="edge">
<title>8&#45;&gt;3</title>
<path fill="none" stroke="black" d="M1094.26,-1122.64C1116.42,-1105.67 1162.01,-1073.18 1206,-1056.53 1514.9,-939.66 1611.79,-980.14 1938,-928.53 2038.2,-912.68 2075.04,-945.29 2164,-896.53 2174.78,-890.62 2171.17,-881.35 2182,-875.53 2271.17,-827.66 2308.47,-865.89 2408,-847.53 2590.76,-813.83 2638.49,-808.62 2814,-747.53 2844.12,-737.05 2877.25,-721.29 2899.09,-710.28"/>
<polygon fill="black" stroke="black" points="2900.97,-713.25 2908.28,-705.59 2897.78,-707.02 2900.97,-713.25"/>
<text text-anchor="middle" x="2051" y="-932.33" font-family="Times,serif" font-size="14.00">0/4611686018427387903</text>
</g>
<!-- 8&#45;&gt;2 -->
<g id="edge27" class="edge">
<title>8&#45;&gt;2</title>
<path fill="none" stroke="black" d="M1092.31,-1120.16C1114.66,-1094.1 1163.13,-1033.84 1188,-974.53 1203.61,-937.32 1176.4,-912.96 1206,-885.53 1243.12,-851.14 1382.75,-869.18 1432,-857.53 1552.25,-829.1 1573.2,-790.5 1694,-764.53 2005.3,-697.61 2091.33,-738.84 2408,-705.53 2436.17,-702.57 2468.32,-698.36 2490.46,-695.33"/>
<polygon fill="black" stroke="black" points="2491.03,-698.79 2500.46,-693.95 2490.07,-691.85 2491.03,-698.79"/>
<text text-anchor="middle" x="1807" y="-768.33" font-family="Times,serif" font-size="14.00">0/4611686018427387903</text>
</g>
<!-- 8&#45;&gt;1 -->
<g id="edge28" class="edge">
<title>8&#45;&gt;1</title>
<path fill="none" stroke="black" d="M1086.87,-1150.03C1101.64,-1185.79 1141.94,-1270.25 1206,-1307.53 1387.61,-1413.21 1497.29,-1248.03 1676,-1358.53 1688.58,-1366.31 1681.02,-1379.44 1694,-1386.53 1782.16,-1434.66 1820.62,-1401.12 1920,-1386.53 1957.25,-1381.07 1998.65,-1367.23 2024.5,-1357.6"/>
<polygon fill="black" stroke="black" points="2025.82,-1360.84 2033.93,-1354.02 2023.34,-1354.3 2025.82,-1360.84"/>
<text text-anchor="middle" x="1563" y="-1362.33" font-family="Times,serif" font-size="14.00">0/4611686018427387903</text>
</g>
<!-- 8&#45;&gt;9 -->
<g id="edge21" class="edge">
<title>8&#45;&gt;9</title>
<path fill="none" stroke="black" d="M1095.15,-1123.83C1117.79,-1109.48 1163.13,-1083.25 1206,-1073.53 1326.09,-1046.3 1474.73,-1069.29 1534.86,-1080.86"/>
<polygon fill="black" stroke="black" points="1534.54,-1084.36 1545.03,-1082.87 1535.9,-1077.5 1534.54,-1084.36"/>
<text text-anchor="middle" x="1319" y="-1077.33" font-family="Times,serif" font-size="14.00">&#45;86185/4611686018427387903</text>
</g>
<!-- 8&#45;&gt;11 -->
<g id="edge19" class="edge">
<title>8&#45;&gt;11</title>
<path fill="none" stroke="black" d="M1097,-1138.76C1120.86,-1146.17 1166.46,-1159.81 1206,-1168.53 1518.92,-1237.6 1906.25,-1275.68 2018.29,-1285.78"/>
<polygon fill="black" stroke="black" points="2017.99,-1289.27 2028.26,-1286.67 2018.61,-1282.29 2017.99,-1289.27"/>
<text text-anchor="middle" x="1563" y="-1251.33" font-family="Times,serif" font-size="14.00">86185/86191</text>
</g>
</g>
</svg>
