<?xml version="1.0" encoding="UTF-8" standalone="no"?>
<!DOCTYPE svg PUBLIC "-//W3C//DTD SVG 1.1//EN"
 "http://www.w3.org/Graphics/SVG/1.1/DTD/svg11.dtd">
<!-- Generated by graphviz version 2.42.3 (20191010.1750)
 -->
<!-- Title: out Pages: 1 -->
<svg width="290pt" height="86pt"
 viewBox="0.00 0.00 290.00 86.00" xmlns="http://www.w3.org/2000/svg" xmlns:xlink="http://www.w3.org/1999/xlink">
<g id="graph0" class="graph" transform="scale(1 1) rotate(0) translate(4 82)">
<title>out</title>
<polygon fill="white" stroke="transparent" points="-4,4 -4,-82 286,-82 286,4 -4,4"/>
<!-- 0 -->
<g id="node1" class="node">
<title>0</title>
<ellipse fill="none" stroke="black" cx="18" cy="-25" rx="18" ry="18"/>
<text text-anchor="middle" x="18" y="-21.3" font-family="Times,serif" font-size="14.00">0</text>
</g>
<!-- 1 -->
<g id="node2" class="node">
<title>1</title>
<ellipse fill="none" stroke="black" cx="100" cy="-60" rx="18" ry="18"/>
<text text-anchor="middle" x="100" y="-56.3" font-family="Times,serif" font-size="14.00">1</text>
</g>
<!-- 0&#45;&gt;1 -->
<g id="edge1" class="edge">
<title>0&#45;&gt;1</title>
<path fill="none" stroke="black" d="M34.81,-31.91C45.98,-36.8 61.19,-43.46 74.01,-49.06"/>
<polygon fill="black" stroke="black" points="72.66,-52.3 83.23,-53.1 75.47,-45.88 72.66,-52.3"/>
<text text-anchor="middle" x="59" y="-47.8" font-family="Times,serif" font-size="14.00">1</text>
</g>
<!-- 2 -->
<g id="node3" class="node">
<title>2</title>
<ellipse fill="none" stroke="black" cx="182" cy="-18" rx="18" ry="18"/>
<text text-anchor="middle" x="182" y="-14.3" font-family="Times,serif" font-size="14.00">2</text>
</g>
<!-- 0&#45;&gt;2 -->
<g id="edge2" class="edge">
<title>0&#45;&gt;2</title>
<path fill="none" stroke="black" d="M36.07,-22.59C48.72,-20.92 66.4,-18.86 82,-18 106.18,-16.66 133.74,-16.8 153.62,-17.19"/>
<polygon fill="black" stroke="black" points="153.74,-20.69 163.81,-17.42 153.9,-13.69 153.74,-20.69"/>
<text text-anchor="middle" x="100" y="-21.8" font-family="Times,serif" font-size="14.00">2</text>
</g>
<!-- 1&#45;&gt;2 -->
<g id="edge4" class="edge">
<title>1&#45;&gt;2</title>
<path fill="none" stroke="black" d="M116.42,-51.9C127.82,-45.92 143.57,-37.65 156.66,-30.78"/>
<polygon fill="black" stroke="black" points="158.4,-33.82 165.62,-26.07 155.14,-27.62 158.4,-33.82"/>
<text text-anchor="middle" x="141" y="-44.8" font-family="Times,serif" font-size="14.00">3</text>
</g>
<!-- 3 -->
<g id="node4" class="node">
<title>3</title>
<ellipse fill="none" stroke="black" cx="264" cy="-45" rx="18" ry="18"/>
<text text-anchor="middle" x="264" y="-41.3" font-family="Times,serif" font-size="14.00">3</text>
</g>
<!-- 1&#45;&gt;3 -->
<g id="edge5" class="edge">
<title>1&#45;&gt;3</title>
<path fill="none" stroke="black" d="M118.33,-59.7C142.86,-59.1 189.03,-57.3 228,-52 230.73,-51.63 233.56,-51.18 236.38,-50.68"/>
<polygon fill="black" stroke="black" points="237.17,-54.09 246.34,-48.77 235.86,-47.22 237.17,-54.09"/>
<text text-anchor="middle" x="182" y="-60.8" font-family="Times,serif" font-size="14.00">5</text>
</g>
<!-- 2&#45;&gt;3 -->
<g id="edge3" class="edge">
<title>2&#45;&gt;3</title>
<path fill="none" stroke="black" d="M199.19,-23.46C210.03,-27.12 224.55,-32.02 236.99,-36.22"/>
<polygon fill="black" stroke="black" points="236.24,-39.66 246.83,-39.54 238.48,-33.03 236.24,-39.66"/>
<text text-anchor="middle" x="223" y="-36.8" font-family="Times,serif" font-size="14.00">4</text>
</g>
</g>
</svg>
