<?xml version="1.0" encoding="UTF-8" standalone="no"?>
<!DOCTYPE svg PUBLIC "-//W3C//DTD SVG 1.1//EN"
 "http://www.w3.org/Graphics/SVG/1.1/DTD/svg11.dtd">
<!-- Generated by graphviz version 2.42.3 (20191010.1750)
 -->
<!-- Title: out Pages: 1 -->
<svg width="1354pt" height="351pt"
 viewBox="0.00 0.00 1354.00 351.11" xmlns="http://www.w3.org/2000/svg" xmlns:xlink="http://www.w3.org/1999/xlink">
<g id="graph0" class="graph" transform="scale(1 1) rotate(0) translate(4 347.11)">
<title>out</title>
<polygon fill="white" stroke="transparent" points="-4,4 -4,-347.11 1350,-347.11 1350,4 -4,4"/>
<!-- 0 -->
<g id="node1" class="node">
<title>0</title>
<ellipse fill="none" stroke="black" cx="18" cy="-285.11" rx="18" ry="18"/>
<text text-anchor="middle" x="18" y="-281.41" font-family="Times,serif" font-size="14.00">0</text>
</g>
<!-- 4 -->
<g id="node2" class="node">
<title>4</title>
<ellipse fill="none" stroke="black" cx="160.5" cy="-181.11" rx="18" ry="18"/>
<text text-anchor="middle" x="160.5" y="-177.41" font-family="Times,serif" font-size="14.00">4</text>
</g>
<!-- 0&#45;&gt;4 -->
<g id="edge1" class="edge">
<title>0&#45;&gt;4</title>
<path fill="none" stroke="black" d="M32.11,-273.86C38.6,-268.38 46.62,-261.78 54,-256.11 81.91,-234.67 115.16,-211.39 136.77,-196.55"/>
<polygon fill="black" stroke="black" points="138.99,-199.27 145.27,-190.73 135.04,-193.49 138.99,-199.27"/>
<text text-anchor="middle" x="83.5" y="-259.91" font-family="Times,serif" font-size="14.00">375/375</text>
</g>
<!-- 3 -->
<g id="node3" class="node">
<title>3</title>
<ellipse fill="none" stroke="black" cx="526.5" cy="-216.11" rx="18" ry="18"/>
<text text-anchor="middle" x="526.5" y="-212.41" font-family="Times,serif" font-size="14.00">3</text>
</g>
<!-- 0&#45;&gt;3 -->
<g id="edge2" class="edge">
<title>0&#45;&gt;3</title>
<path fill="none" stroke="black" d="M36.06,-283.25C91.17,-277.17 269.32,-257.06 416,-235.11 444.21,-230.89 476.35,-225.2 498.47,-221.16"/>
<polygon fill="black" stroke="black" points="499.27,-224.57 508.47,-219.31 498,-217.69 499.27,-224.57"/>
<text text-anchor="middle" x="160.5" y="-275.91" font-family="Times,serif" font-size="14.00">875/875</text>
</g>
<!-- 2 -->
<g id="node4" class="node">
<title>2</title>
<ellipse fill="none" stroke="black" cx="1328" cy="-194.11" rx="18" ry="18"/>
<text text-anchor="middle" x="1328" y="-190.41" font-family="Times,serif" font-size="14.00">2</text>
</g>
<!-- 0&#45;&gt;2 -->
<g id="edge3" class="edge">
<title>0&#45;&gt;2</title>
<path fill="none" stroke="black" d="M34.54,-293.19C59.95,-305.65 112.31,-328.11 159.5,-328.11 159.5,-328.11 159.5,-328.11 949.5,-328.11 1104.04,-328.11 1169.09,-361.78 1292,-268.11 1306.84,-256.8 1315.66,-237.64 1320.74,-221.64"/>
<polygon fill="black" stroke="black" points="1324.19,-222.28 1323.56,-211.71 1317.46,-220.37 1324.19,-222.28"/>
<text text-anchor="middle" x="526.5" y="-331.91" font-family="Times,serif" font-size="14.00">875/875</text>
</g>
<!-- 4&#45;&gt;3 -->
<g id="edge8" class="edge">
<title>4&#45;&gt;3</title>
<path fill="none" stroke="black" d="M177.56,-187.84C186.38,-191.23 197.62,-195.05 208,-197.11 313.88,-218.08 443.18,-218.1 498.4,-216.94"/>
<polygon fill="black" stroke="black" points="498.52,-220.44 508.43,-216.7 498.35,-213.44 498.52,-220.44"/>
<text text-anchor="middle" x="312" y="-219.91" font-family="Times,serif" font-size="14.00">375/4611686018427387903</text>
</g>
<!-- 4&#45;&gt;2 -->
<g id="edge9" class="edge">
<title>4&#45;&gt;2</title>
<path fill="none" stroke="black" d="M169.93,-196.5C177.89,-209.34 191.12,-226.83 208,-235.11 377.51,-318.26 868.55,-279.69 1057,-268.11 1162.04,-261.65 1200.48,-291.06 1292,-239.11 1300.51,-234.28 1307.66,-226.47 1313.24,-218.71"/>
<polygon fill="black" stroke="black" points="1316.31,-220.4 1318.85,-210.12 1310.45,-216.57 1316.31,-220.4"/>
<text text-anchor="middle" x="729.5" y="-289.91" font-family="Times,serif" font-size="14.00">0/4611686018427387903</text>
</g>
<!-- 1 -->
<g id="node5" class="node">
<title>1</title>
<ellipse fill="none" stroke="black" cx="948.5" cy="-80.11" rx="18" ry="18"/>
<text text-anchor="middle" x="948.5" y="-76.41" font-family="Times,serif" font-size="14.00">1</text>
</g>
<!-- 4&#45;&gt;1 -->
<g id="edge10" class="edge">
<title>4&#45;&gt;1</title>
<path fill="none" stroke="black" d="M164.32,-163.43C169,-140.59 180.7,-101.57 208,-83.11 441.9,75.14 819.82,-36.34 921.57,-70.86"/>
<polygon fill="black" stroke="black" points="920.72,-74.27 931.32,-74.22 923.01,-67.65 920.72,-74.27"/>
<text text-anchor="middle" x="526.5" y="-8.91" font-family="Times,serif" font-size="14.00">0/4611686018427387903</text>
</g>
<!-- 3&#45;&gt;4 -->
<g id="edge11" class="edge">
<title>3&#45;&gt;4</title>
<path fill="none" stroke="black" d="M509.98,-208.86C489.14,-199.57 450.72,-183.96 416,-178.11 334.14,-164.31 235.37,-172.38 188.59,-177.65"/>
<polygon fill="black" stroke="black" points="188.16,-174.18 178.64,-178.82 188.98,-181.13 188.16,-174.18"/>
<text text-anchor="middle" x="312" y="-181.91" font-family="Times,serif" font-size="14.00">&#45;375/4611686018427387903</text>
</g>
<!-- 3&#45;&gt;2 -->
<g id="edge12" class="edge">
<title>3&#45;&gt;2</title>
<path fill="none" stroke="black" d="M544.51,-218.96C565.98,-222.41 604.1,-228.01 637,-230.11 927.69,-248.61 1007.35,-269.86 1292,-208.11 1295.26,-207.4 1298.61,-206.42 1301.89,-205.3"/>
<polygon fill="black" stroke="black" points="1303.24,-208.53 1311.32,-201.67 1300.73,-201.99 1303.24,-208.53"/>
<text text-anchor="middle" x="948.5" y="-252.91" font-family="Times,serif" font-size="14.00">1250/4611686018427387903</text>
</g>
<!-- 3&#45;&gt;1 -->
<g id="edge13" class="edge">
<title>3&#45;&gt;1</title>
<path fill="none" stroke="black" d="M544.03,-210.98C565.33,-204.54 603.6,-193.58 637,-187.11 718.34,-171.35 744.36,-193.04 822,-164.11 862.66,-148.95 903.19,-118.29 926.78,-98.5"/>
<polygon fill="black" stroke="black" points="929.06,-101.16 934.38,-92 924.51,-95.84 929.06,-101.16"/>
<text text-anchor="middle" x="729.5" y="-190.91" font-family="Times,serif" font-size="14.00">0/4611686018427387903</text>
</g>
<!-- 2&#45;&gt;4 -->
<g id="edge14" class="edge">
<title>2&#45;&gt;4</title>
<path fill="none" stroke="black" d="M1310.04,-191.86C1246.21,-183.53 1014.24,-154.41 822,-145.11 739.87,-141.13 719.2,-143.1 637,-145.11 446.16,-149.77 395.79,-131.84 208,-166.11 201.21,-167.35 194.04,-169.31 187.41,-171.42"/>
<polygon fill="black" stroke="black" points="185.93,-168.23 177.59,-174.76 188.18,-174.86 185.93,-168.23"/>
<text text-anchor="middle" x="729.5" y="-148.91" font-family="Times,serif" font-size="14.00">0/4611686018427387903</text>
</g>
<!-- 2&#45;&gt;3 -->
<g id="edge15" class="edge">
<title>2&#45;&gt;3</title>
<path fill="none" stroke="black" d="M1309.75,-194.58C1207.54,-197.39 681.49,-211.87 554.91,-215.35"/>
<polygon fill="black" stroke="black" points="554.47,-211.86 544.57,-215.64 554.66,-218.86 554.47,-211.86"/>
<text text-anchor="middle" x="948.5" y="-210.91" font-family="Times,serif" font-size="14.00">&#45;1250/4611686018427387903</text>
</g>
<!-- 2&#45;&gt;1 -->
<g id="edge16" class="edge">
<title>2&#45;&gt;1</title>
<path fill="none" stroke="black" d="M1323.9,-176.34C1319.82,-158.75 1310.83,-132.55 1292,-119.11 1252.53,-90.94 1123.17,-101.73 1075,-96.11 1041.02,-92.14 1001.93,-87.08 976.53,-83.72"/>
<polygon fill="black" stroke="black" points="976.91,-80.24 966.54,-82.4 975.99,-87.18 976.91,-80.24"/>
<text text-anchor="middle" x="1183.5" y="-122.91" font-family="Times,serif" font-size="14.00">2125/4611686018427387903</text>
</g>
<!-- 1&#45;&gt;4 -->
<g id="edge5" class="edge">
<title>1&#45;&gt;4</title>
<path fill="none" stroke="black" d="M930.31,-80.33C883.31,-81.01 748.67,-83.54 637,-91.11 445.82,-104.06 380.93,-51.57 208,-134.11 196.3,-139.69 185.88,-149.49 177.88,-158.71"/>
<polygon fill="black" stroke="black" points="175.11,-156.57 171.5,-166.53 180.53,-160.99 175.11,-156.57"/>
<text text-anchor="middle" x="526.5" y="-97.91" font-family="Times,serif" font-size="14.00">0/4611686018427387903</text>
</g>
<!-- 1&#45;&gt;3 -->
<g id="edge6" class="edge">
<title>1&#45;&gt;3</title>
<path fill="none" stroke="black" d="M930.36,-81.16C869.18,-85.02 663.75,-98.77 637,-111.11 597.2,-129.45 562.88,-168.31 543.73,-193.26"/>
<polygon fill="black" stroke="black" points="540.79,-191.34 537.6,-201.45 546.4,-195.54 540.79,-191.34"/>
<text text-anchor="middle" x="729.5" y="-114.91" font-family="Times,serif" font-size="14.00">0/4611686018427387903</text>
</g>
<!-- 1&#45;&gt;2 -->
<g id="edge7" class="edge">
<title>1&#45;&gt;2</title>
<path fill="none" stroke="black" d="M966.45,-77.62C1028.16,-68.94 1239.88,-42.57 1292,-81.11 1318.13,-100.42 1325.33,-139.02 1327.02,-165.69"/>
<polygon fill="black" stroke="black" points="1323.53,-166.1 1327.44,-175.95 1330.53,-165.82 1323.53,-166.1"/>
<text text-anchor="middle" x="1183.5" y="-84.91" font-family="Times,serif" font-size="14.00">&#45;2125/4611686018427387903</text>
</g>
<!-- 5 -->
<g id="node6" class="node">
<title>5</title>
<ellipse fill="none" stroke="black" cx="1328" cy="-42.11" rx="18" ry="18"/>
<text text-anchor="middle" x="1328" y="-38.41" font-family="Times,serif" font-size="14.00">5</text>
</g>
<!-- 1&#45;&gt;5 -->
<g id="edge4" class="edge">
<title>1&#45;&gt;5</title>
<path fill="none" stroke="black" d="M965.42,-73.83C988.93,-64.91 1034.54,-49.03 1075,-43.11 1156.15,-31.23 1253.59,-36.21 1299.94,-39.73"/>
<polygon fill="black" stroke="black" points="1299.82,-43.23 1310.07,-40.54 1300.38,-36.25 1299.82,-43.23"/>
<text text-anchor="middle" x="1183.5" y="-46.91" font-family="Times,serif" font-size="14.00">2125/2125</text>
</g>
</g>
</svg>
